<svg width="436" height="332" viewBox="0 0 436 332" fill="none" xmlns="http://www.w3.org/2000/svg">
<path d="M204.273 205.909C202.872 207.91 201.071 210.411 198.87 213.413C196.669 216.314 194.368 219.266 191.966 222.268C189.665 225.169 187.364 227.87 185.063 230.372C182.862 232.773 181.011 234.474 179.51 235.474C178.51 236.075 177.359 236.575 176.058 236.975C174.758 237.375 173.407 237.625 172.006 237.726C170.705 237.826 169.455 237.726 168.254 237.425C167.054 237.225 166.003 236.825 165.103 236.225C164.202 235.524 163.452 234.524 162.851 233.223C162.351 232.123 161.851 230.672 161.351 228.871C160.95 227.07 160.8 224.819 160.9 222.117C158.499 226.12 155.848 229.221 152.946 231.422C150.045 233.523 147.293 235.074 144.692 236.075C141.69 237.175 138.689 237.826 135.687 238.026C134.287 238.026 132.786 237.525 131.185 236.525C129.584 235.624 128.233 234.174 127.133 232.173C126.032 230.072 125.332 227.42 125.032 224.219C124.732 220.917 125.132 217.015 126.232 212.512C127.633 206.409 129.834 200.856 132.836 195.854C135.937 190.851 139.289 186.599 142.891 183.097C146.493 179.495 150.045 176.794 153.547 174.993C157.048 173.192 159.95 172.392 162.251 172.592C164.952 173.092 167.154 173.892 168.855 174.993C170.255 175.994 171.156 177.494 171.556 179.495C172.056 181.396 171.256 183.948 169.155 187.149C170.555 186.849 171.706 186.649 172.606 186.549C173.607 186.449 174.357 186.399 174.858 186.399C175.458 186.399 175.858 186.449 176.058 186.549C176.158 186.749 176.208 187.199 176.208 187.9C176.208 188.5 176.058 189.651 175.758 191.352C175.458 193.052 175.008 195.354 174.407 198.255C173.807 201.157 173.007 204.909 172.006 209.511C171.806 210.411 171.606 211.262 171.406 212.062C171.306 212.763 171.156 213.513 170.956 214.313C170.856 215.014 170.705 215.864 170.505 216.865C170.305 217.865 170.055 219.116 169.755 220.617C169.655 221.517 169.605 222.518 169.605 223.618C169.705 224.619 169.905 225.569 170.205 226.47C170.505 227.37 170.956 228.121 171.556 228.721C172.256 229.221 173.207 229.471 174.407 229.471C175.408 229.471 176.709 228.871 178.309 227.67C179.91 226.37 181.611 224.769 183.412 222.868C185.213 220.867 187.064 218.716 188.965 216.414C190.966 214.013 192.817 211.712 194.518 209.511C196.219 207.31 197.719 205.359 199.02 203.658C200.421 201.957 201.421 200.706 202.022 199.906C202.822 199.005 203.623 198.505 204.423 198.405C205.223 198.205 205.824 198.405 206.224 199.005C206.624 199.606 206.674 200.506 206.374 201.707C206.174 202.907 205.474 204.308 204.273 205.909ZM160.3 212.512C160.8 210.511 161.401 208.16 162.101 205.459C162.801 202.757 163.402 200.156 163.902 197.655C164.402 195.153 164.752 193.102 164.952 191.502C165.253 189.801 165.203 189 164.802 189.1C164.302 189.2 163.752 189.35 163.152 189.551C162.651 189.751 162.001 189.901 161.201 190.001C160.4 190.101 159.6 190.251 158.799 190.451C159.6 188.85 160.05 187.55 160.15 186.549C160.35 185.448 160.4 184.598 160.3 183.998C160.2 183.297 160 182.747 159.7 182.347C158.599 181.446 156.648 182.197 153.847 184.598C151.145 186.899 147.994 191.201 144.392 197.505C142.891 200.106 141.69 202.907 140.79 205.909C139.889 208.811 139.239 211.562 138.839 214.163C138.539 216.765 138.489 219.066 138.689 221.067C138.889 222.968 139.289 224.219 139.889 224.819C140.99 225.919 142.241 226.47 143.641 226.47C145.042 226.37 146.443 225.969 147.844 225.269C149.344 224.469 150.795 223.468 152.196 222.268C153.697 221.067 154.997 219.816 156.098 218.516C157.299 217.215 158.249 216.014 158.949 214.914C159.75 213.813 160.2 213.013 160.3 212.512ZM264.154 228.871C264.154 226.77 264.354 224.369 264.754 221.667C265.255 218.966 265.855 216.214 266.555 213.413C267.256 210.511 267.956 207.71 268.656 205.009C269.357 202.307 269.957 199.906 270.457 197.805C271.058 195.203 271.007 193.202 270.307 191.802C269.607 190.401 268.406 189.701 266.705 189.701C265.905 189.701 264.304 190.401 261.903 191.802C259.602 193.202 257.05 195.654 254.249 199.156C251.547 202.557 248.846 207.21 246.145 213.113C243.543 218.916 241.492 226.32 239.991 235.324C238.09 236.325 236.289 236.975 234.589 237.275C233.688 237.475 232.888 237.625 232.187 237.726C230.186 237.826 228.886 237.475 228.285 236.675C227.685 235.975 227.785 234.174 228.585 231.272C228.986 229.871 229.686 227.62 230.687 224.519C231.787 221.417 232.838 218.065 233.838 214.463C234.839 210.762 235.689 207.11 236.39 203.508C237.19 199.806 237.59 196.604 237.59 193.903C237.59 192.002 237.24 190.701 236.54 190.001C235.939 189.3 235.039 188.95 233.838 188.95C232.938 188.95 231.437 189.451 229.336 190.451C227.235 191.452 224.884 193.403 222.282 196.304C219.681 199.206 217.08 203.258 214.478 208.46C211.977 213.563 209.826 220.216 208.025 228.421V228.121C207.825 228.921 207.625 229.721 207.425 230.522C207.224 231.222 207.074 231.973 206.974 232.773C206.874 233.573 206.724 234.324 206.524 235.024L199.02 238.326C198.52 238.526 197.87 238.676 197.069 238.776C196.369 238.876 195.668 238.726 194.968 238.326C194.368 238.026 193.918 237.325 193.617 236.225C193.317 235.124 193.417 233.473 193.918 231.272L203.372 192.102C203.673 190.801 203.923 189.551 204.123 188.35C204.323 187.249 204.423 186.199 204.423 185.198C204.523 184.098 204.473 183.197 204.273 182.497C205.974 181.696 207.475 181.096 208.775 180.696C210.076 180.296 211.126 179.996 211.927 179.796C212.927 179.495 213.778 179.345 214.478 179.345C217.68 179.345 218.73 182.097 217.63 187.6C217.23 189.2 216.629 191.552 215.829 194.653C217.73 192.252 219.731 190.001 221.832 187.9C224.033 185.699 226.234 183.748 228.435 182.047C230.637 180.346 232.838 178.995 235.039 177.995C237.34 176.994 239.591 176.494 241.792 176.494C243.493 176.494 244.894 176.994 245.995 177.995C247.195 178.995 248.096 180.346 248.696 182.047C249.396 183.648 249.796 185.599 249.897 187.9C249.997 190.101 249.897 192.402 249.596 194.803C251.197 192.702 252.948 190.601 254.849 188.5C256.85 186.299 258.901 184.348 261.002 182.647C263.203 180.946 265.455 179.545 267.756 178.445C270.057 177.344 272.358 176.794 274.659 176.794C277.361 176.794 279.412 177.594 280.813 179.195C282.313 180.796 283.314 182.847 283.814 185.348C284.414 187.85 284.565 190.551 284.264 193.453C284.064 196.354 283.664 199.156 283.064 201.857L277.961 222.117C276.861 227.12 277.911 229.621 281.113 229.621C283.614 229.621 286.365 228.421 289.367 226.019C292.369 223.618 295.27 220.767 298.072 217.465C300.973 214.163 303.674 210.762 306.176 207.26C308.677 203.758 310.778 200.956 312.479 198.855C313.079 198.155 313.68 197.755 314.28 197.655C314.98 197.555 315.531 197.705 315.931 198.105C316.431 198.405 316.681 198.955 316.681 199.756C316.781 200.556 316.531 201.557 315.931 202.757C313.93 206.259 311.478 210.161 308.577 214.463C305.675 218.666 302.474 222.618 298.972 226.32C295.57 230.022 291.918 233.123 288.016 235.624C284.114 238.126 280.062 239.376 275.86 239.376C274.459 239.376 273.059 239.226 271.658 238.926C270.357 238.626 269.106 238.076 267.906 237.275C266.805 236.475 265.905 235.424 265.204 234.124C264.504 232.723 264.154 230.972 264.154 228.871Z" fill="#386641"/>
<path d="M337.542 147.379C337.242 148.479 336.642 149.58 335.741 150.68C334.941 151.681 333.99 152.531 332.89 153.232C331.889 153.832 330.839 154.232 329.738 154.432C328.637 154.632 327.737 154.432 327.037 153.832C324.935 152.231 323.835 150.53 323.735 148.729C323.635 146.828 324.085 145.078 325.086 143.477C326.086 141.776 327.337 140.375 328.837 139.274C330.338 138.074 331.639 137.374 332.74 137.173C333.84 136.973 334.741 137.223 335.441 137.924C336.241 138.524 336.842 139.375 337.242 140.475C337.642 141.476 337.842 142.626 337.842 143.927C337.942 145.228 337.842 146.378 337.542 147.379ZM316.831 179.345C317.332 178.745 318.282 178.245 319.683 177.844C321.083 177.444 322.534 177.144 324.035 176.944C325.536 176.644 326.886 176.494 328.087 176.494C329.388 176.394 330.138 176.394 330.338 176.494C330.438 176.594 330.188 177.644 329.588 179.645C328.988 181.646 328.237 183.998 327.337 186.699C326.436 189.4 325.486 192.202 324.485 195.103C323.485 197.905 322.734 200.206 322.234 202.007C321.734 203.808 321.133 205.859 320.433 208.16C319.733 210.361 319.082 212.562 318.482 214.764C317.982 216.865 317.632 218.866 317.432 220.767C317.231 222.668 317.382 224.118 317.882 225.119C318.382 226.32 318.932 227.17 319.533 227.67C320.133 228.071 320.783 228.271 321.484 228.271C323.485 228.271 325.986 227.17 328.988 224.969C332.089 222.768 335.191 220.166 338.292 217.165C341.494 214.063 344.446 210.962 347.147 207.86C349.848 204.658 351.849 202.107 353.15 200.206C353.951 199.206 354.751 198.555 355.551 198.255C356.452 197.955 357.152 198.005 357.652 198.405C358.253 198.805 358.553 199.456 358.553 200.356C358.653 201.257 358.353 202.307 357.652 203.508C356.052 206.309 353.7 209.661 350.599 213.563C347.497 217.365 344.195 221.067 340.694 224.669C337.192 228.171 333.74 231.172 330.338 233.673C327.037 236.175 324.335 237.475 322.234 237.575C320.533 237.676 318.832 237.375 317.131 236.675C315.531 236.075 314.03 235.224 312.629 234.124C311.328 232.923 310.228 231.572 309.327 230.072C308.427 228.471 307.927 226.82 307.827 225.119C307.526 222.618 307.526 219.216 307.827 214.914C308.127 210.511 308.677 206.059 309.477 201.557C310.278 196.954 311.278 192.602 312.479 188.5C313.78 184.398 315.23 181.346 316.831 179.345ZM391.12 211.912C390.119 215.714 388.769 219.266 387.068 222.568C385.367 225.869 383.316 228.721 380.914 231.122C378.613 233.523 375.962 235.374 372.96 236.675C370.059 238.076 366.857 238.776 363.355 238.776C359.253 238.776 356.002 237.876 353.6 236.075C351.299 234.374 349.548 232.223 348.348 229.621C347.247 227.02 346.597 224.169 346.397 221.067C346.096 217.965 345.946 215.064 345.946 212.362C345.946 210.461 346.196 208.36 346.697 206.059C347.097 203.758 347.697 201.407 348.498 199.005C349.298 196.604 350.299 194.203 351.499 191.802C352.8 189.4 354.301 187.199 356.002 185.198C356.602 183.497 357.502 181.997 358.703 180.696C360.004 179.395 361.454 178.345 363.055 177.544C364.756 176.644 366.557 175.994 368.458 175.593C370.359 175.093 372.21 174.843 374.011 174.843C374.311 174.843 374.561 174.893 374.761 174.993C375.061 175.093 375.362 175.193 375.662 175.293C376.962 175.393 378.563 175.893 380.464 176.794C382.465 177.694 384.366 179.045 386.167 180.846C388.068 182.647 389.669 184.948 390.97 187.75C392.27 190.451 392.921 193.753 392.921 197.655C392.921 198.455 392.871 199.456 392.771 200.656C392.671 201.757 392.571 202.707 392.47 203.508C394.772 202.607 397.173 201.507 399.674 200.206C402.175 198.905 404.577 197.555 406.878 196.154C409.279 194.653 411.48 193.152 413.481 191.652C415.482 190.151 417.083 188.8 418.284 187.6C419.284 186.699 420.135 186.199 420.835 186.099C421.536 185.999 422.036 186.199 422.336 186.699C422.636 187.199 422.686 187.9 422.486 188.8C422.286 189.701 421.736 190.701 420.835 191.802C420.335 192.402 419.034 193.603 416.933 195.404C414.932 197.205 412.531 199.156 409.729 201.257C406.928 203.358 403.876 205.409 400.575 207.41C397.273 209.411 394.121 210.912 391.12 211.912ZM365.757 189.1C365.456 190.001 365.306 190.951 365.306 191.952C365.306 193.553 365.406 195.254 365.607 197.054C365.807 198.755 366.307 200.306 367.107 201.707C367.908 203.108 369.158 204.308 370.859 205.309C372.66 206.209 375.111 206.659 378.213 206.659C378.713 206.659 379.214 206.659 379.714 206.659C380.214 206.559 380.714 206.459 381.215 206.359C381.515 205.059 381.765 203.908 381.965 202.907C382.265 201.807 382.415 200.856 382.415 200.056C382.615 198.155 382.615 196.204 382.415 194.203C382.215 192.202 381.815 190.401 381.215 188.8C380.714 187.099 380.014 185.749 379.114 184.748C378.313 183.648 377.313 183.097 376.112 183.097C374.211 183.097 372.36 183.648 370.559 184.748C368.858 185.749 367.257 187.199 365.757 189.1ZM356.152 215.514C356.152 217.315 356.252 219.116 356.452 220.917C356.652 222.618 357.052 224.169 357.652 225.569C358.253 226.87 359.053 227.97 360.054 228.871C361.054 229.671 362.355 230.072 363.956 230.072C365.757 230.072 367.407 229.671 368.908 228.871C370.409 227.97 371.76 226.87 372.96 225.569C374.161 224.169 375.212 222.618 376.112 220.917C377.113 219.116 377.963 217.265 378.663 215.364C377.963 215.464 377.263 215.564 376.562 215.664C375.962 215.664 375.262 215.664 374.461 215.664C370.659 215.664 367.357 214.564 364.556 212.362C361.855 210.061 359.754 207.16 358.253 203.658C357.652 205.759 357.152 207.81 356.752 209.811C356.352 211.812 356.152 213.713 356.152 215.514Z" fill="#F97A00"/>
<path d="M107.541 129.91C107.37 129.396 107.885 128.109 109.085 126.051C110.286 123.821 111.572 121.163 112.944 118.076C114.488 114.817 115.946 111.215 117.318 107.27C118.862 103.153 119.891 98.9513 120.405 94.6634C121.091 90.3754 121.091 86.0875 120.405 81.7996C119.719 77.5116 117.918 73.3952 115.002 69.4503C113.287 67.3921 110.715 66.2772 107.284 66.1057C104.025 65.7627 100.252 66.2772 95.9641 67.6494C91.8476 68.85 87.4739 70.8224 82.843 73.5667C78.3835 76.1395 74.2671 79.2268 70.4937 82.8287C66.7203 86.259 63.4615 90.1182 60.7172 94.4061C58.1444 98.694 56.6865 103.068 56.3435 107.527C56.0005 111.129 56.0862 114.474 56.6008 117.561C57.2869 120.648 58.1444 123.478 59.1735 126.051C60.2027 128.624 61.3175 131.025 62.5181 133.255C63.7188 135.485 64.8336 137.457 65.8627 139.172C67.2349 141.573 69.3788 144.232 72.2946 147.148C75.2104 150.064 78.3835 153.408 81.8139 157.182C85.2442 160.783 88.6746 164.9 92.1049 169.531C95.5353 174.162 98.5368 179.393 101.11 185.225C103.682 191.056 105.483 197.574 106.512 204.778C107.541 211.981 107.456 219.957 106.255 228.704C104.368 241.397 101.367 251.945 97.2504 260.349C93.134 268.925 88.5888 275.786 83.6148 280.931C78.8123 286.077 73.9241 289.765 68.95 291.994C63.976 294.396 59.8596 295.939 56.6008 296.625C54.028 297.14 50.9407 297.569 47.3388 297.912C43.9085 298.426 40.2209 298.34 36.276 297.654C32.5026 297.14 28.6434 295.939 24.6985 294.052C20.7536 292.337 17.2375 289.593 14.1502 285.82C10.5483 281.532 7.71829 276.901 5.66008 271.927C3.77339 267.639 2.40125 262.665 1.54366 257.005C0.514557 251.516 0.94335 245.77 2.83004 239.767C4.20218 238.224 5.66008 236.851 7.20374 235.651C8.7474 234.45 10.2911 233.421 11.8347 232.563C13.5499 231.534 15.3508 230.591 17.2375 229.733C19.4672 229.047 21.697 228.447 23.9267 227.932C25.8134 227.589 27.7858 227.418 29.8441 227.418C32.0738 227.246 34.132 227.504 36.0187 228.19C33.4459 231.106 31.645 233.85 30.6159 236.423C29.9298 237.795 29.4153 238.995 29.0722 240.024C28.3862 243.283 28.1289 247.142 28.3004 251.602C28.6434 256.233 29.5868 260.607 31.1304 264.723C32.8456 269.011 35.2469 272.613 38.3342 275.529C41.4215 278.616 45.5379 280.245 50.6834 280.417C63.2042 280.76 73.8383 270.983 82.5857 251.087C85.5015 244.913 86.9594 238.652 86.9594 232.306C87.1309 225.96 86.3591 219.871 84.6439 214.04C83.1002 208.208 80.9563 202.805 78.212 197.831C75.6392 192.686 72.9807 188.312 70.2364 184.71C67.4921 181.108 64.1476 177.249 60.2027 173.133C56.4293 168.845 52.6559 164.214 48.8825 159.24C45.1091 154.266 41.6788 148.863 38.5914 143.031C35.6756 137.2 33.7032 130.854 32.6741 123.993C31.3019 114.388 32.1595 105.64 35.2469 97.7507C38.5057 89.6894 42.7936 82.6571 48.1107 76.654C53.5992 70.6509 59.5166 65.7627 65.8627 61.9893C72.3804 58.2159 78.1262 55.8147 83.1002 54.7856C110.715 49.297 128.81 53.928 137.386 68.6785C140.987 74.3386 142.96 80.3417 143.303 86.6878C143.646 93.034 143.217 98.9513 142.017 104.44C140.987 109.757 139.615 114.302 137.9 118.076C136.356 121.677 135.327 123.65 134.813 123.993C133.784 125.022 132.154 126.137 129.925 127.337C127.695 128.538 124.093 129.653 119.119 130.682C117.747 131.025 116.375 131.197 115.002 131.197C113.802 131.197 112.515 131.111 111.143 130.939C109.771 130.768 108.571 130.425 107.541 129.91Z" fill="#F97A00"/>
<path d="M111.459 278.236V264.457H114.357V278.236H111.459ZM111.459 262.192V259.004H114.357V262.192H111.459ZM138.915 278.236H136.017V270.517C136.017 269.235 135.807 268.295 135.385 267.698C134.964 267.101 134.349 266.802 133.541 266.802C132.733 266.802 131.978 267.109 131.275 267.724C130.59 268.321 130.107 269.103 129.826 270.069V278.236H126.928V270.517C126.928 269.235 126.718 268.295 126.296 267.698C125.875 267.101 125.269 266.802 124.478 266.802C123.67 266.802 122.915 267.101 122.213 267.698C121.528 268.295 121.036 269.077 120.737 270.043V278.236H117.839V264.457H120.474V267.224C121.018 266.258 121.73 265.52 122.608 265.011C123.504 264.484 124.522 264.22 125.664 264.22C126.805 264.22 127.701 264.519 128.351 265.116C129.018 265.713 129.431 266.46 129.589 267.355C130.186 266.337 130.915 265.564 131.776 265.037C132.654 264.492 133.655 264.22 134.779 264.22C135.587 264.22 136.263 264.37 136.808 264.668C137.352 264.967 137.774 265.379 138.072 265.906C138.371 266.416 138.582 267.013 138.705 267.698C138.845 268.365 138.915 269.077 138.915 269.832V278.236ZM150.079 278.499C148.973 278.499 147.998 278.236 147.155 277.709C146.312 277.182 145.645 276.497 145.153 275.654V283.847H142.255V264.457H144.81V266.934C145.337 266.108 146.022 265.45 146.865 264.958C147.708 264.466 148.648 264.22 149.684 264.22C150.633 264.22 151.502 264.413 152.292 264.8C153.083 265.169 153.768 265.687 154.347 266.354C154.927 267.022 155.375 267.786 155.691 268.646C156.025 269.489 156.191 270.385 156.191 271.333C156.191 272.651 155.928 273.854 155.401 274.943C154.892 276.032 154.172 276.901 153.241 277.551C152.327 278.183 151.274 278.499 150.079 278.499ZM149.131 276.023C149.746 276.023 150.299 275.891 150.791 275.628C151.3 275.364 151.73 275.013 152.082 274.574C152.45 274.135 152.731 273.634 152.925 273.072C153.118 272.51 153.214 271.931 153.214 271.333C153.214 270.701 153.109 270.104 152.898 269.542C152.687 268.98 152.38 268.488 151.976 268.067C151.59 267.645 151.133 267.311 150.606 267.066C150.097 266.82 149.535 266.697 148.92 266.697C148.551 266.697 148.165 266.767 147.761 266.907C147.357 267.048 146.979 267.241 146.628 267.487C146.277 267.733 145.969 268.023 145.706 268.356C145.443 268.69 145.258 269.041 145.153 269.41V273.02C145.399 273.582 145.724 274.091 146.128 274.548C146.532 274.987 146.997 275.347 147.524 275.628C148.051 275.891 148.586 276.023 149.131 276.023ZM158.824 259.004H161.722V274.258C161.722 274.96 161.827 275.408 162.038 275.601C162.249 275.795 162.512 275.891 162.829 275.891C163.18 275.891 163.505 275.856 163.803 275.786C164.119 275.715 164.392 275.628 164.62 275.522L165.041 277.814C164.62 277.99 164.119 278.139 163.54 278.262C162.96 278.385 162.442 278.447 161.985 278.447C161.002 278.447 160.229 278.174 159.667 277.63C159.105 277.068 158.824 276.295 158.824 275.312V259.004ZM172.966 278.499C171.894 278.499 170.919 278.315 170.041 277.946C169.181 277.56 168.434 277.042 167.802 276.392C167.17 275.724 166.678 274.969 166.327 274.126C165.993 273.265 165.826 272.352 165.826 271.386C165.826 270.086 166.125 268.901 166.722 267.83C167.319 266.741 168.153 265.871 169.225 265.221C170.296 264.554 171.552 264.22 172.992 264.22C174.432 264.22 175.67 264.554 176.707 265.221C177.76 265.871 178.577 266.732 179.157 267.803C179.736 268.875 180.026 270.025 180.026 271.254C180.026 271.465 180.017 271.667 180 271.86C179.982 272.036 179.965 272.185 179.947 272.308H168.908C168.961 273.116 169.181 273.827 169.567 274.442C169.971 275.039 170.48 275.514 171.095 275.865C171.71 276.198 172.368 276.365 173.071 276.365C173.844 276.365 174.573 276.172 175.258 275.786C175.96 275.399 176.434 274.89 176.68 274.258L179.157 274.969C178.858 275.636 178.401 276.242 177.787 276.787C177.19 277.314 176.478 277.735 175.653 278.051C174.827 278.35 173.932 278.499 172.966 278.499ZM168.829 270.385H177.154C177.102 269.595 176.873 268.901 176.469 268.304C176.083 267.689 175.583 267.215 174.968 266.881C174.371 266.53 173.703 266.354 172.966 266.354C172.245 266.354 171.578 266.53 170.963 266.881C170.366 267.215 169.874 267.689 169.488 268.304C169.102 268.901 168.882 269.595 168.829 270.385ZM190.135 266.96C189.011 266.978 188.01 267.232 187.132 267.724C186.271 268.216 185.657 268.91 185.288 269.805V278.236H182.39V264.457H185.077V267.54C185.551 266.591 186.175 265.836 186.948 265.274C187.72 264.694 188.537 264.378 189.398 264.326C189.573 264.326 189.714 264.326 189.819 264.326C189.942 264.326 190.048 264.334 190.135 264.352V266.96ZM198.029 272.335V269.726H205.906V272.335H198.029ZM231.487 259.531V278.236H228.51V269.99H219.078V278.236H216.128V259.531H219.078V267.355H228.51V259.531H231.487ZM241.35 278.499C240.278 278.499 239.304 278.315 238.425 277.946C237.565 277.56 236.818 277.042 236.186 276.392C235.554 275.724 235.062 274.969 234.711 274.126C234.377 273.265 234.21 272.352 234.21 271.386C234.21 270.086 234.509 268.901 235.106 267.83C235.703 266.741 236.537 265.871 237.609 265.221C238.68 264.554 239.936 264.22 241.376 264.22C242.816 264.22 244.054 264.554 245.091 265.221C246.144 265.871 246.961 266.732 247.541 267.803C248.12 268.875 248.41 270.025 248.41 271.254C248.41 271.465 248.401 271.667 248.384 271.86C248.366 272.036 248.349 272.185 248.331 272.308H237.292C237.345 273.116 237.565 273.827 237.951 274.442C238.355 275.039 238.864 275.514 239.479 275.865C240.094 276.198 240.752 276.365 241.455 276.365C242.228 276.365 242.957 276.172 243.642 275.786C244.344 275.399 244.818 274.89 245.064 274.258L247.541 274.969C247.242 275.636 246.786 276.242 246.171 276.787C245.574 277.314 244.862 277.735 244.037 278.051C243.211 278.35 242.316 278.499 241.35 278.499ZM237.213 270.385H245.539C245.486 269.595 245.257 268.901 244.854 268.304C244.467 267.689 243.967 267.215 243.352 266.881C242.755 266.53 242.087 266.354 241.35 266.354C240.63 266.354 239.962 266.53 239.347 266.881C238.75 267.215 238.258 267.689 237.872 268.304C237.486 268.901 237.266 269.595 237.213 270.385ZM249.773 274.205C249.773 273.327 250.019 272.563 250.511 271.913C251.02 271.246 251.714 270.736 252.592 270.385C253.47 270.016 254.489 269.832 255.648 269.832C256.263 269.832 256.886 269.876 257.518 269.963C258.168 270.051 258.739 270.192 259.231 270.385V269.516C259.231 268.55 258.941 267.794 258.361 267.25C257.782 266.705 256.948 266.433 255.859 266.433C255.086 266.433 254.357 266.574 253.672 266.855C252.987 267.118 252.258 267.496 251.485 267.988L250.511 266.038C251.424 265.423 252.337 264.967 253.25 264.668C254.181 264.37 255.156 264.22 256.175 264.22C258.019 264.22 259.468 264.712 260.522 265.696C261.593 266.662 262.129 268.04 262.129 269.832V274.969C262.129 275.303 262.181 275.54 262.287 275.68C262.41 275.821 262.612 275.9 262.893 275.917V278.236C262.629 278.289 262.392 278.324 262.181 278.341C261.971 278.359 261.795 278.368 261.655 278.368C261.04 278.368 260.574 278.218 260.258 277.92C259.942 277.621 259.758 277.27 259.705 276.866L259.626 276.076C259.029 276.848 258.265 277.445 257.334 277.867C256.403 278.289 255.463 278.499 254.515 278.499C253.602 278.499 252.785 278.315 252.065 277.946C251.345 277.56 250.783 277.042 250.379 276.392C249.975 275.742 249.773 275.013 249.773 274.205ZM258.546 275.048C258.757 274.82 258.923 274.591 259.046 274.363C259.169 274.135 259.231 273.933 259.231 273.757V272.176C258.739 271.983 258.221 271.843 257.676 271.755C257.132 271.65 256.596 271.597 256.069 271.597C255.016 271.597 254.155 271.808 253.488 272.229C252.838 272.651 252.513 273.23 252.513 273.968C252.513 274.372 252.618 274.758 252.829 275.127C253.057 275.496 253.373 275.795 253.777 276.023C254.199 276.251 254.717 276.365 255.332 276.365C255.964 276.365 256.57 276.242 257.149 275.997C257.729 275.751 258.195 275.434 258.546 275.048ZM265.671 259.004H268.569V274.258C268.569 274.96 268.674 275.408 268.885 275.601C269.096 275.795 269.359 275.891 269.675 275.891C270.027 275.891 270.352 275.856 270.65 275.786C270.966 275.715 271.238 275.628 271.467 275.522L271.888 277.814C271.467 277.99 270.966 278.139 270.387 278.262C269.807 278.385 269.289 278.447 268.832 278.447C267.849 278.447 267.076 278.174 266.514 277.63C265.952 277.068 265.671 276.295 265.671 275.312V259.004ZM281.158 277.525C280.912 277.647 280.605 277.779 280.236 277.92C279.867 278.06 279.445 278.183 278.971 278.289C278.515 278.394 278.04 278.447 277.549 278.447C276.951 278.447 276.398 278.341 275.889 278.13C275.38 277.92 274.967 277.586 274.651 277.129C274.352 276.655 274.203 276.049 274.203 275.312V266.697H272.385V264.457H274.203V259.926H277.101V264.457H280.104V266.697H277.101V274.389C277.136 274.864 277.285 275.215 277.549 275.443C277.83 275.672 278.172 275.786 278.576 275.786C278.98 275.786 279.366 275.715 279.735 275.575C280.104 275.434 280.376 275.32 280.552 275.232L281.158 277.525ZM295.521 278.236H292.623V270.517C292.623 269.27 292.395 268.339 291.938 267.724C291.481 267.109 290.84 266.802 290.015 266.802C289.505 266.802 288.979 266.943 288.434 267.224C287.89 267.505 287.407 267.891 286.985 268.383C286.564 268.857 286.256 269.41 286.063 270.043V278.236H283.165V259.004H286.063V267.224C286.59 266.293 287.31 265.564 288.223 265.037C289.137 264.492 290.12 264.22 291.174 264.22C292.035 264.22 292.746 264.37 293.308 264.668C293.87 264.967 294.309 265.379 294.625 265.906C294.959 266.416 295.187 267.013 295.31 267.698C295.451 268.365 295.521 269.077 295.521 269.832V278.236ZM298.885 278.236V264.457H301.783V278.236H298.885ZM298.885 262.192V259.004H301.783V262.192H298.885ZM311.509 278.499C310.438 278.499 309.463 278.315 308.585 277.946C307.724 277.56 306.978 277.042 306.345 276.392C305.713 275.724 305.221 274.969 304.87 274.126C304.536 273.265 304.369 272.352 304.369 271.386C304.369 270.086 304.668 268.901 305.265 267.83C305.862 266.741 306.696 265.871 307.768 265.221C308.839 264.554 310.095 264.22 311.535 264.22C312.975 264.22 314.214 264.554 315.25 265.221C316.304 265.871 317.12 266.732 317.7 267.803C318.28 268.875 318.569 270.025 318.569 271.254C318.569 271.465 318.561 271.667 318.543 271.86C318.525 272.036 318.508 272.185 318.49 272.308H307.452C307.504 273.116 307.724 273.827 308.11 274.442C308.514 275.039 309.024 275.514 309.638 275.865C310.253 276.198 310.912 276.365 311.614 276.365C312.387 276.365 313.116 276.172 313.801 275.786C314.503 275.399 314.978 274.89 315.224 274.258L317.7 274.969C317.401 275.636 316.945 276.242 316.33 276.787C315.733 277.314 315.022 277.735 314.196 278.051C313.371 278.35 312.475 278.499 311.509 278.499ZM307.373 270.385H315.698C315.645 269.595 315.417 268.901 315.013 268.304C314.626 267.689 314.126 267.215 313.511 266.881C312.914 266.53 312.247 266.354 311.509 266.354C310.789 266.354 310.121 266.53 309.507 266.881C308.909 267.215 308.418 267.689 308.031 268.304C307.645 268.901 307.425 269.595 307.373 270.385ZM328.679 266.96C327.555 266.978 326.554 267.232 325.675 267.724C324.815 268.216 324.2 268.91 323.831 269.805V278.236H320.933V264.457H323.62V267.54C324.095 266.591 324.718 265.836 325.491 265.274C326.264 264.694 327.08 264.378 327.941 264.326C328.117 264.326 328.257 264.326 328.363 264.326C328.485 264.326 328.591 264.334 328.679 264.352V266.96ZM336.573 272.335V269.726H344.45V272.335H336.573ZM367.599 262.139H361.382V278.236H358.405V262.139H352.161V259.531H367.599V262.139ZM366.242 274.205C366.242 273.327 366.488 272.563 366.979 271.913C367.489 271.246 368.183 270.736 369.061 270.385C369.939 270.016 370.958 269.832 372.117 269.832C372.732 269.832 373.355 269.876 373.987 269.963C374.637 270.051 375.208 270.192 375.7 270.385V269.516C375.7 268.55 375.41 267.794 374.83 267.25C374.251 266.705 373.416 266.433 372.328 266.433C371.555 266.433 370.826 266.574 370.141 266.855C369.456 267.118 368.727 267.496 367.954 267.988L366.979 266.038C367.893 265.423 368.806 264.967 369.719 264.668C370.65 264.37 371.625 264.22 372.644 264.22C374.488 264.22 375.937 264.712 376.991 265.696C378.062 266.662 378.598 268.04 378.598 269.832V274.969C378.598 275.303 378.65 275.54 378.756 275.68C378.879 275.821 379.081 275.9 379.362 275.917V278.236C379.098 278.289 378.861 278.324 378.65 278.341C378.44 278.359 378.264 278.368 378.123 278.368C377.509 278.368 377.043 278.218 376.727 277.92C376.411 277.621 376.227 277.27 376.174 276.866L376.095 276.076C375.498 276.848 374.734 277.445 373.803 277.867C372.872 278.289 371.932 278.499 370.984 278.499C370.071 278.499 369.254 278.315 368.534 277.946C367.814 277.56 367.252 277.042 366.848 276.392C366.444 275.742 366.242 275.013 366.242 274.205ZM375.015 275.048C375.226 274.82 375.392 274.591 375.515 274.363C375.638 274.135 375.7 273.933 375.7 273.757V272.176C375.208 271.983 374.69 271.843 374.145 271.755C373.601 271.65 373.065 271.597 372.538 271.597C371.485 271.597 370.624 271.808 369.956 272.229C369.307 272.651 368.982 273.23 368.982 273.968C368.982 274.372 369.087 274.758 369.298 275.127C369.526 275.496 369.842 275.795 370.246 276.023C370.668 276.251 371.186 276.365 371.801 276.365C372.433 276.365 373.039 276.242 373.618 275.997C374.198 275.751 374.663 275.434 375.015 275.048ZM387.014 278.499C385.855 278.499 384.757 278.315 383.721 277.946C382.684 277.56 381.797 276.989 381.06 276.234L382.14 274.284C382.93 274.987 383.721 275.496 384.511 275.812C385.319 276.128 386.118 276.286 386.908 276.286C387.716 276.286 388.375 276.137 388.884 275.838C389.394 275.522 389.648 275.066 389.648 274.468C389.648 274.029 389.516 273.704 389.253 273.494C388.99 273.283 388.603 273.099 388.094 272.94C387.602 272.782 387.005 272.607 386.302 272.414C385.319 272.115 384.493 271.808 383.826 271.491C383.159 271.158 382.658 270.754 382.324 270.28C381.991 269.805 381.824 269.199 381.824 268.462C381.824 267.566 382.052 266.802 382.509 266.17C382.965 265.538 383.598 265.055 384.406 264.721C385.231 264.387 386.179 264.22 387.251 264.22C388.252 264.22 389.174 264.378 390.017 264.694C390.878 264.993 391.633 265.467 392.283 266.117L391.044 268.04C390.43 267.478 389.797 267.066 389.148 266.802C388.515 266.539 387.83 266.407 387.093 266.407C386.671 266.407 386.267 266.46 385.881 266.565C385.494 266.653 385.17 266.828 384.906 267.092C384.66 267.338 384.537 267.689 384.537 268.146C384.537 268.515 384.643 268.813 384.853 269.041C385.064 269.27 385.38 269.463 385.802 269.621C386.223 269.779 386.741 269.955 387.356 270.148C388.428 270.464 389.341 270.78 390.096 271.096C390.851 271.395 391.431 271.79 391.835 272.282C392.256 272.756 392.467 273.415 392.467 274.258C392.467 275.593 391.967 276.638 390.965 277.393C389.982 278.13 388.665 278.499 387.014 278.499ZM402.695 277.525C402.449 277.647 402.142 277.779 401.773 277.92C401.404 278.06 400.983 278.183 400.509 278.289C400.052 278.394 399.578 278.447 399.086 278.447C398.489 278.447 397.936 278.341 397.426 278.13C396.917 277.92 396.504 277.586 396.188 277.129C395.889 276.655 395.74 276.049 395.74 275.312V266.697H393.922V264.457H395.74V259.926H398.638V264.457H401.641V266.697H398.638V274.389C398.673 274.864 398.822 275.215 399.086 275.443C399.367 275.672 399.709 275.786 400.113 275.786C400.517 275.786 400.904 275.715 401.273 275.575C401.641 275.434 401.914 275.32 402.089 275.232L402.695 277.525ZM404.702 278.236V264.457H407.6V278.236H404.702ZM404.702 262.192V259.004H407.6V262.192H404.702ZM417.327 278.499C416.255 278.499 415.28 278.315 414.402 277.946C413.542 277.56 412.795 277.042 412.163 276.392C411.531 275.724 411.039 274.969 410.688 274.126C410.354 273.265 410.187 272.352 410.187 271.386C410.187 270.086 410.486 268.901 411.083 267.83C411.68 266.741 412.514 265.871 413.586 265.221C414.657 264.554 415.913 264.22 417.353 264.22C418.793 264.22 420.031 264.554 421.068 265.221C422.121 265.871 422.938 266.732 423.518 267.803C424.097 268.875 424.387 270.025 424.387 271.254C424.387 271.465 424.378 271.667 424.361 271.86C424.343 272.036 424.326 272.185 424.308 272.308H413.269C413.322 273.116 413.542 273.827 413.928 274.442C414.332 275.039 414.841 275.514 415.456 275.865C416.071 276.198 416.729 276.365 417.432 276.365C418.205 276.365 418.934 276.172 419.619 275.786C420.321 275.399 420.795 274.89 421.041 274.258L423.518 274.969C423.219 275.636 422.762 276.242 422.148 276.787C421.551 277.314 420.839 277.735 420.014 278.051C419.188 278.35 418.293 278.499 417.327 278.499ZM413.19 270.385H421.515C421.463 269.595 421.234 268.901 420.831 268.304C420.444 267.689 419.944 267.215 419.329 266.881C418.732 266.53 418.064 266.354 417.327 266.354C416.607 266.354 415.939 266.53 415.324 266.881C414.727 267.215 414.235 267.689 413.849 268.304C413.463 268.901 413.243 269.595 413.19 270.385ZM434.496 266.96C433.372 266.978 432.371 267.232 431.493 267.724C430.632 268.216 430.018 268.91 429.649 269.805V278.236H426.751V264.457H429.438V267.54C429.912 266.591 430.536 265.836 431.309 265.274C432.081 264.694 432.898 264.378 433.759 264.326C433.934 264.326 434.075 264.326 434.18 264.326C434.303 264.326 434.409 264.334 434.496 264.352V266.96Z" fill="#386641"/>
</svg>
