<svg width="2711" height="810" viewBox="0 0 2711 810" fill="none" xmlns="http://www.w3.org/2000/svg">
<g clip-path="url(#clip0_279_4093)">
<path d="M745.188 509L709.75 441.125H534.812L499.375 509H473.688L608.5 251.375H636.062L770.875 509H745.188ZM622.375 274.062L546.25 419.562H698.312L622.375 274.062ZM1069 509L845.125 282.125V509H821.688V251.375H847.562L1071.44 479V251.375H1094.5V509H1069Z" fill="#01204E"/>
<path d="M1248.5 509H1178.94V251.375H1353.31C1372.06 251.375 1387.94 253.312 1400.94 257.188C1414.06 261.062 1424.69 266.562 1432.81 273.688C1441.06 280.812 1447 289.438 1450.62 299.562C1454.38 309.562 1456.25 320.75 1456.25 333.125C1456.25 344 1454.69 353.5 1451.56 361.625C1448.56 369.75 1444.44 376.75 1439.19 382.625C1434.06 388.375 1428.06 393.25 1421.19 397.25C1414.31 401.25 1407.06 404.562 1399.44 407.188L1483.81 509H1402.44L1324.44 414.125H1248.5V509ZM1385.94 332.75C1385.94 327.75 1385.25 323.5 1383.88 320C1382.62 316.5 1380.38 313.688 1377.12 311.562C1373.88 309.312 1369.5 307.688 1364 306.688C1358.62 305.688 1351.88 305.188 1343.75 305.188H1248.5V360.312H1343.75C1351.88 360.312 1358.62 359.812 1364 358.812C1369.5 357.812 1373.88 356.25 1377.12 354.125C1380.38 351.875 1382.62 349 1383.88 345.5C1385.25 342 1385.94 337.75 1385.94 332.75ZM1865.19 380.375C1865.19 402.5 1861.12 422.062 1853 439.062C1844.88 455.938 1833.25 470.062 1818.12 481.438C1803 492.812 1784.62 501.438 1763 507.312C1741.5 513.062 1717.31 515.938 1690.44 515.938C1663.56 515.938 1639.25 513.062 1617.5 507.312C1595.88 501.438 1577.44 492.812 1562.19 481.438C1546.94 470.062 1535.19 455.938 1526.94 439.062C1518.69 422.062 1514.56 402.5 1514.56 380.375C1514.56 358.25 1518.69 338.75 1526.94 321.875C1535.19 304.875 1546.94 290.688 1562.19 279.312C1577.44 267.938 1595.88 259.375 1617.5 253.625C1639.25 247.75 1663.56 244.812 1690.44 244.812C1717.31 244.812 1741.5 247.75 1763 253.625C1784.62 259.375 1803 267.938 1818.12 279.312C1833.25 290.688 1844.88 304.875 1853 321.875C1861.12 338.75 1865.19 358.25 1865.19 380.375ZM1794.88 380.375C1794.88 370.75 1793.31 361.188 1790.19 351.688C1787.19 342.062 1781.75 333.438 1773.88 325.812C1766.12 318.188 1755.5 312 1742 307.25C1728.5 302.5 1711.31 300.125 1690.44 300.125C1676.44 300.125 1664.12 301.25 1653.5 303.5C1642.88 305.625 1633.69 308.625 1625.94 312.5C1618.19 316.375 1611.69 320.938 1606.44 326.188C1601.19 331.312 1597 336.875 1593.88 342.875C1590.75 348.75 1588.5 354.938 1587.12 361.438C1585.88 367.812 1585.25 374.125 1585.25 380.375C1585.25 386.75 1585.88 393.188 1587.12 399.688C1588.5 406.188 1590.75 412.438 1593.88 418.438C1597 424.312 1601.19 429.812 1606.44 434.938C1611.69 440.062 1618.19 444.562 1625.94 448.438C1633.69 452.188 1642.88 455.188 1653.5 457.438C1664.12 459.562 1676.44 460.625 1690.44 460.625C1711.31 460.625 1728.5 458.25 1742 453.5C1755.5 448.75 1766.12 442.562 1773.88 434.938C1781.75 427.312 1787.19 418.75 1790.19 409.25C1793.31 399.625 1794.88 390 1794.88 380.375ZM2165.94 323.938C2161.06 321.562 2154.62 318.875 2146.62 315.875C2138.62 312.875 2129.56 310.062 2119.44 307.438C2109.31 304.688 2098.31 302.438 2086.44 300.688C2074.56 298.812 2062.38 297.875 2049.88 297.875C2039.88 297.875 2031.31 298.188 2024.19 298.812C2017.19 299.438 2011.25 300.25 2006.38 301.25C2001.62 302.25 1997.81 303.438 1994.94 304.812C1992.19 306.062 1990.06 307.375 1988.56 308.75C1987.06 310.125 1986.06 311.5 1985.56 312.875C1985.19 314.25 1985 315.5 1985 316.625C1985 320.375 1986.88 323.688 1990.62 326.562C1994.38 329.312 1999.5 331.812 2006 334.062C2012.5 336.188 2020.06 338.25 2028.69 340.25C2037.31 342.125 2046.44 344.125 2056.06 346.25C2065.81 348.25 2075.81 350.5 2086.06 353C2096.44 355.375 2106.44 358.188 2116.06 361.438C2125.81 364.688 2135 368.5 2143.62 372.875C2152.25 377.125 2159.81 382.125 2166.31 387.875C2172.81 393.625 2177.94 400.25 2181.69 407.75C2185.44 415.25 2187.31 423.812 2187.31 433.438C2187.31 445.812 2185.12 456.438 2180.75 465.312C2176.38 474.188 2170.5 481.688 2163.12 487.812C2155.88 493.938 2147.44 498.875 2137.81 502.625C2128.19 506.25 2118.06 509.062 2107.44 511.062C2096.94 513.062 2086.25 514.375 2075.38 515C2064.62 515.625 2054.38 515.938 2044.62 515.938C2019.12 515.938 1995.5 513.812 1973.75 509.562C1952.12 505.438 1933 500.25 1916.38 494V432.5C1933.5 442 1953 449.438 1974.88 454.812C1996.88 460.188 2020.38 462.875 2045.38 462.875C2060.12 462.875 2072.12 462.125 2081.38 460.625C2090.75 459 2098.06 457 2103.31 454.625C2108.56 452.125 2112.12 449.438 2114 446.562C2115.88 443.688 2116.81 440.938 2116.81 438.312C2116.81 434.188 2114.94 430.625 2111.19 427.625C2107.44 424.5 2102.31 421.812 2095.81 419.562C2089.31 417.188 2081.75 415.062 2073.12 413.188C2064.5 411.188 2055.31 409.25 2045.56 407.375C2035.94 405.375 2026 403.25 2015.75 401C2005.5 398.75 1995.5 396.125 1985.75 393.125C1976.12 390 1967 386.438 1958.38 382.438C1949.75 378.312 1942.19 373.5 1935.69 368C1929.19 362.375 1924.06 355.938 1920.31 348.688C1916.56 341.312 1914.69 332.812 1914.69 323.188C1914.69 311.812 1916.69 302 1920.69 293.75C1924.69 285.5 1930.06 278.5 1936.81 272.75C1943.69 266.875 1951.56 262.125 1960.44 258.5C1969.44 254.875 1978.88 252.062 1988.75 250.062C1998.62 248.062 2008.62 246.688 2018.75 245.938C2028.88 245.188 2038.5 244.812 2047.62 244.812C2057.62 244.812 2067.88 245.312 2078.38 246.312C2089 247.312 2099.44 248.75 2109.69 250.625C2119.94 252.375 2129.81 254.438 2139.31 256.812C2148.94 259.188 2157.81 261.688 2165.94 264.312V323.938Z" fill="#01204E"/>
<circle cx="2307.08" cy="110.141" r="15.0517" transform="rotate(31.31 2307.08 110.141)" fill="#01204E"/>
<path d="M2243.2 132.08C2260.23 117.725 2288.53 101.396 2296.48 99.8768C2303.54 110.526 2310.16 118.748 2312.77 124C2295.16 127.329 2272.01 142.505 2255.39 156.637C2248.57 162.438 2238.86 173.922 2233.74 184.596C2229.12 194.242 2226.12 200.858 2223.67 219.926C2222.59 228.297 2222.57 237.317 2227.02 247.877C2227.7 249.501 2229.17 251.901 2231.79 252.119C2234.98 252.383 2235.79 251.873 2237.92 251.245C2237.92 251.245 2235.58 253.587 2232.49 254.548C2231.05 254.997 2228.52 255.308 2226.22 254.412C2222.96 253.143 2219.91 248.583 2218.26 246.06C2214.62 240.502 2209.57 228.316 2208.82 218.832C2207.41 201.01 2208.73 192.951 2212.85 178.744C2216.4 166.526 2224.54 147.811 2243.2 132.08Z" fill="#01204E"/>
<circle cx="2178.84" cy="213.678" r="8.79636" transform="rotate(-88.69 2178.84 213.678)" fill="#01204E"/>
<path d="M2228.1 241.232C2207.06 237.442 2182.48 224.53 2177.11 221.607C2182.66 216.333 2182.59 210.891 2185.77 208.647C2202.98 218.241 2220.66 226.089 2241.29 229.761C2249.76 231.269 2264.8 232.675 2276.59 232.397C2287.24 232.145 2295.97 231.499 2313.62 228.258C2321.37 226.835 2324.3 226.262 2331.59 223.34C2333.69 222.5 2339.81 218.803 2338.87 217.32C2337.78 215.595 2335.65 214.446 2333.31 213.578C2333.31 213.578 2335.94 214.353 2337.5 214.888C2339.58 215.603 2341.02 216.46 2341.78 217.772C2342.71 219.361 2340.32 223.282 2338.99 224.523C2336.07 227.257 2328.56 233.586 2319.35 236.918C2304.96 242.12 2298 242.745 2283.68 244.218C2271.36 245.484 2251.15 245.385 2228.1 241.232Z" fill="#01204E"/>
<circle cx="2319.9" cy="245.652" r="5.11788" transform="rotate(151.31 2319.9 245.652)" fill="#01204E"/>
<path d="M2307.25 198.265C2315.94 217.58 2323.44 241.026 2324.82 246.459C2319.84 242.993 2317.68 246.768 2315.16 244.58C2310.83 227.086 2304.67 208.546 2296.13 189.61C2292.63 181.836 2286.24 168.16 2280.34 157.958C2275.01 148.739 2270.82 140.774 2260.79 126.238C2256.39 119.856 2251.31 112.942 2246.57 108.781C2245.11 107.499 2242.09 106.178 2241.58 107.283C2241.01 108.497 2241.72 112.25 2242.5 114.516C2242.5 114.516 2241.54 112.023 2241.01 110.525C2240.29 108.526 2240.18 104.885 2241.73 104.19C2243.45 103.423 2245.69 104.223 2246.89 105.027C2250.04 107.14 2255.4 111.692 2260.24 117.834C2269.34 129.376 2273.44 134.784 2281.09 146.882C2287.66 157.286 2297.73 177.097 2307.25 198.265Z" fill="#01204E"/>
<path d="M498.773 577.073V581.829H476.283V577.073H498.773ZM483.309 565.782H488.801V611.897C488.801 613.86 489.139 615.405 489.814 616.53C490.489 617.634 491.368 618.422 492.452 618.892C493.536 619.342 494.692 619.567 495.919 619.567C496.635 619.567 497.249 619.526 497.76 619.445C498.272 619.342 498.722 619.24 499.11 619.138L500.276 624.077C499.744 624.282 499.09 624.466 498.312 624.63C497.535 624.814 496.574 624.906 495.428 624.906C493.424 624.906 491.491 624.466 489.63 623.587C487.789 622.707 486.275 621.398 485.089 619.659C483.902 617.921 483.309 615.763 483.309 613.185V565.782ZM545.298 594.746V624.2H539.836V561.364H545.298V584.467H545.789C546.893 582.033 548.601 580.09 550.912 578.638C553.244 577.185 556.19 576.459 559.749 576.459C562.94 576.459 565.742 577.114 568.156 578.423C570.569 579.732 572.451 581.665 573.801 584.222C575.151 586.779 575.826 589.929 575.826 593.672V624.2H570.334V594.009C570.334 590.123 569.25 587.065 567.082 584.835C564.934 582.585 562.03 581.46 558.368 581.46C555.852 581.46 553.612 581.992 551.649 583.056C549.685 584.12 548.131 585.654 546.985 587.658C545.86 589.642 545.298 592.005 545.298 594.746ZM636.91 625.182C632.512 625.182 628.707 624.159 625.496 622.114C622.285 620.048 619.799 617.195 618.04 613.554C616.302 609.892 615.432 605.679 615.432 600.913C615.432 596.167 616.302 591.954 618.04 588.272C619.799 584.57 622.223 581.675 625.312 579.589C628.421 577.482 632.011 576.429 636.081 576.429C638.638 576.429 641.103 576.899 643.476 577.84C645.848 578.76 647.976 580.182 649.857 582.105C651.76 584.007 653.263 586.41 654.368 589.315C655.472 592.199 656.024 595.615 656.024 599.563V602.263H619.206V597.446H650.44C650.44 594.418 649.827 591.698 648.599 589.284C647.393 586.85 645.705 584.927 643.537 583.516C641.389 582.105 638.904 581.399 636.081 581.399C633.095 581.399 630.466 582.197 628.196 583.792C625.926 585.388 624.146 587.495 622.857 590.113C621.589 592.731 620.945 595.595 620.924 598.704V601.588C620.924 605.331 621.569 608.604 622.857 611.406C624.166 614.188 626.018 616.346 628.411 617.88C630.804 619.414 633.637 620.181 636.91 620.181C639.139 620.181 641.093 619.833 642.77 619.138C644.468 618.442 645.889 617.512 647.035 616.346C648.201 615.159 649.08 613.86 649.673 612.449L654.858 614.137C654.143 616.121 652.966 617.951 651.33 619.629C649.714 621.306 647.689 622.656 645.255 623.679C642.841 624.681 640.06 625.182 636.91 625.182ZM766.064 625.182C761.851 625.182 758.179 624.129 755.05 622.022C751.941 619.915 749.527 617.031 747.809 613.37C746.091 609.708 745.231 605.535 745.231 600.851C745.231 596.126 746.101 591.923 747.839 588.241C749.599 584.559 752.033 581.675 755.142 579.589C758.251 577.482 761.861 576.429 765.972 576.429C769.122 576.429 771.976 577.042 774.533 578.27C777.089 579.476 779.196 581.184 780.853 583.393C782.53 585.582 783.584 588.139 784.013 591.064H778.491C777.918 588.405 776.537 586.134 774.349 584.252C772.18 582.35 769.419 581.399 766.064 581.399C763.058 581.399 760.399 582.217 758.087 583.854C755.776 585.47 753.966 587.73 752.656 590.634C751.368 593.518 750.724 596.863 750.724 600.667C750.724 604.492 751.358 607.877 752.626 610.823C753.894 613.748 755.674 616.039 757.964 617.696C760.276 619.352 762.976 620.181 766.064 620.181C768.151 620.181 770.053 619.792 771.771 619.015C773.51 618.217 774.962 617.092 776.128 615.64C777.314 614.188 778.112 612.459 778.521 610.455H784.044C783.635 613.298 782.622 615.834 781.006 618.064C779.411 620.273 777.335 622.012 774.778 623.28C772.242 624.548 769.337 625.182 766.064 625.182ZM841.714 625.182C837.644 625.182 834.044 624.149 830.914 622.083C827.805 620.017 825.371 617.164 823.612 613.523C821.853 609.862 820.973 605.638 820.973 600.851C820.973 596.024 821.853 591.78 823.612 588.118C825.371 584.437 827.805 581.573 830.914 579.527C834.044 577.462 837.644 576.429 841.714 576.429C845.785 576.429 849.374 577.462 852.483 579.527C855.593 581.593 858.027 584.457 859.786 588.118C861.565 591.78 862.455 596.024 862.455 600.851C862.455 605.638 861.575 609.862 859.816 613.523C858.057 617.164 855.613 620.017 852.483 622.083C849.374 624.149 845.785 625.182 841.714 625.182ZM841.714 620.181C844.987 620.181 847.758 619.301 850.029 617.542C852.299 615.783 854.018 613.441 855.183 610.516C856.37 607.591 856.963 604.37 856.963 600.851C856.963 597.333 856.37 594.101 855.183 591.156C854.018 588.21 852.299 585.848 850.029 584.068C847.758 582.289 844.987 581.399 841.714 581.399C838.462 581.399 835.69 582.289 833.399 584.068C831.129 585.848 829.4 588.21 828.214 591.156C827.048 594.101 826.465 597.333 826.465 600.851C826.465 604.37 827.048 607.591 828.214 610.516C829.4 613.441 831.129 615.783 833.399 617.542C835.67 619.301 838.441 620.181 841.714 620.181ZM919.059 625.182C915.193 625.182 911.808 624.159 908.903 622.114C905.999 620.068 903.728 617.215 902.092 613.554C900.476 609.892 899.668 605.627 899.668 600.759C899.668 595.912 900.476 591.667 902.092 588.026C903.728 584.365 906.009 581.522 908.934 579.497C911.859 577.451 915.265 576.429 919.151 576.429C922.015 576.429 924.398 576.94 926.3 577.963C928.202 578.965 929.726 580.213 930.871 581.706C932.017 583.199 932.907 584.651 933.541 586.063H934.032V561.364H939.524V624.2H934.185V615.456H933.541C932.907 616.888 932.007 618.36 930.841 619.874C929.675 621.367 928.131 622.625 926.208 623.648C924.306 624.671 921.923 625.182 919.059 625.182ZM919.703 620.181C922.751 620.181 925.349 619.352 927.496 617.696C929.644 616.018 931.281 613.717 932.406 610.792C933.551 607.847 934.124 604.472 934.124 600.667C934.124 596.904 933.561 593.58 932.436 590.696C931.311 587.791 929.675 585.521 927.527 583.884C925.379 582.227 922.771 581.399 919.703 581.399C916.553 581.399 913.894 582.258 911.726 583.976C909.578 585.674 907.942 587.975 906.817 590.88C905.712 593.784 905.16 597.047 905.16 600.667C905.16 604.329 905.723 607.632 906.848 610.577C907.973 613.523 909.609 615.865 911.757 617.604C913.925 619.322 916.574 620.181 919.703 620.181ZM1001.78 625.182C997.383 625.182 993.579 624.159 990.367 622.114C987.156 620.048 984.671 617.195 982.912 613.554C981.173 609.892 980.304 605.679 980.304 600.913C980.304 596.167 981.173 591.954 982.912 588.272C984.671 584.57 987.094 581.675 990.183 579.589C993.292 577.482 996.882 576.429 1000.95 576.429C1003.51 576.429 1005.97 576.899 1008.35 577.84C1010.72 578.76 1012.85 580.182 1014.73 582.105C1016.63 584.007 1018.13 586.41 1019.24 589.315C1020.34 592.199 1020.9 595.615 1020.9 599.563V602.263H984.077V597.446H1015.31C1015.31 594.418 1014.7 591.698 1013.47 589.284C1012.26 586.85 1010.58 584.927 1008.41 583.516C1006.26 582.105 1003.78 581.399 1000.95 581.399C997.966 581.399 995.338 582.197 993.067 583.792C990.797 585.388 989.017 587.495 987.729 590.113C986.46 592.731 985.816 595.595 985.796 598.704V601.588C985.796 605.331 986.44 608.604 987.729 611.406C989.038 614.188 990.889 616.346 993.282 617.88C995.675 619.414 998.508 620.181 1001.78 620.181C1004.01 620.181 1005.96 619.833 1007.64 619.138C1009.34 618.442 1010.76 617.512 1011.91 616.346C1013.07 615.159 1013.95 613.86 1014.54 612.449L1019.73 614.137C1019.01 616.121 1017.84 617.951 1016.2 619.629C1014.59 621.306 1012.56 622.656 1010.13 623.679C1007.71 624.681 1004.93 625.182 1001.78 625.182ZM1113.66 624.2V561.364H1119.15V586.063H1119.64C1120.26 584.651 1121.14 583.199 1122.28 581.706C1123.45 580.213 1124.97 578.965 1126.85 577.963C1128.76 576.94 1131.15 576.429 1134.03 576.429C1137.9 576.429 1141.3 577.451 1144.22 579.497C1147.15 581.522 1149.43 584.365 1151.06 588.026C1152.7 591.667 1153.52 595.912 1153.52 600.759C1153.52 605.627 1152.7 609.892 1151.06 613.554C1149.45 617.215 1147.18 620.068 1144.25 622.114C1141.35 624.159 1137.97 625.182 1134.13 625.182C1131.26 625.182 1128.87 624.671 1126.95 623.648C1125.04 622.625 1123.51 621.367 1122.34 619.874C1121.18 618.36 1120.28 616.888 1119.64 615.456H1118.97V624.2H1113.66ZM1119.06 600.667C1119.06 604.472 1119.62 607.847 1120.75 610.792C1121.89 613.717 1123.53 616.018 1125.66 617.696C1127.81 619.352 1130.4 620.181 1133.45 620.181C1136.58 620.181 1139.23 619.322 1141.4 617.604C1143.57 615.865 1145.21 613.523 1146.34 610.577C1147.46 607.632 1148.03 604.329 1148.03 600.667C1148.03 597.047 1147.46 593.784 1146.34 590.88C1145.23 587.975 1143.6 585.674 1141.43 583.976C1139.26 582.258 1136.6 581.399 1133.45 581.399C1130.38 581.399 1127.78 582.227 1125.63 583.884C1123.5 585.521 1121.87 587.791 1120.75 590.696C1119.62 593.58 1119.06 596.904 1119.06 600.667ZM1212.22 625.182C1207.82 625.182 1204.01 624.159 1200.8 622.114C1197.59 620.048 1195.11 617.195 1193.35 613.554C1191.61 609.892 1190.74 605.679 1190.74 600.913C1190.74 596.167 1191.61 591.954 1193.35 588.272C1195.11 584.57 1197.53 581.675 1200.62 579.589C1203.73 577.482 1207.32 576.429 1211.39 576.429C1213.94 576.429 1216.41 576.899 1218.78 577.84C1221.15 578.76 1223.28 580.182 1225.16 582.105C1227.07 584.007 1228.57 586.41 1229.67 589.315C1230.78 592.199 1231.33 595.615 1231.33 599.563V602.263H1194.51V597.446H1225.75C1225.75 594.418 1225.13 591.698 1223.91 589.284C1222.7 586.85 1221.01 584.927 1218.84 583.516C1216.7 582.105 1214.21 581.399 1211.39 581.399C1208.4 581.399 1205.77 582.197 1203.5 583.792C1201.23 585.388 1199.45 587.495 1198.16 590.113C1196.9 592.731 1196.25 595.595 1196.23 598.704V601.588C1196.23 605.331 1196.87 608.604 1198.16 611.406C1199.47 614.188 1201.32 616.346 1203.72 617.88C1206.11 619.414 1208.94 620.181 1212.22 620.181C1214.45 620.181 1216.4 619.833 1218.08 619.138C1219.77 618.442 1221.2 617.512 1222.34 616.346C1223.51 615.159 1224.39 613.86 1224.98 612.449L1230.16 614.137C1229.45 616.121 1228.27 617.951 1226.64 619.629C1225.02 621.306 1223 622.656 1220.56 623.679C1218.15 624.681 1215.37 625.182 1212.22 625.182ZM1276.47 594.746V624.2H1271.01V561.364H1276.47V584.467H1276.97C1278.07 582.033 1279.78 580.09 1282.09 578.638C1284.42 577.185 1287.37 576.459 1290.93 576.459C1294.12 576.459 1296.92 577.114 1299.33 578.423C1301.75 579.732 1303.63 581.665 1304.98 584.222C1306.33 586.779 1307 589.929 1307 593.672V624.2H1301.51V594.009C1301.51 590.123 1300.43 587.065 1298.26 584.835C1296.11 582.585 1293.21 581.46 1289.55 581.46C1287.03 581.46 1284.79 581.992 1282.83 583.056C1280.86 584.12 1279.31 585.654 1278.16 587.658C1277.04 589.642 1276.47 592.005 1276.47 594.746ZM1349.09 624.2V577.073H1354.59V624.2H1349.09ZM1351.89 568.973C1350.76 568.973 1349.8 568.595 1349 567.838C1348.2 567.06 1347.81 566.13 1347.81 565.046C1347.81 563.962 1348.2 563.041 1349 562.284C1349.8 561.507 1350.76 561.118 1351.89 561.118C1353.01 561.118 1353.97 561.507 1354.77 562.284C1355.57 563.041 1355.97 563.962 1355.97 565.046C1355.97 566.13 1355.57 567.06 1354.77 567.838C1353.97 568.595 1353.01 568.973 1351.89 568.973ZM1402.14 594.746V624.2H1396.68V577.073H1401.99V584.467H1402.48C1403.58 582.054 1405.3 580.121 1407.63 578.668C1409.98 577.196 1412.89 576.459 1416.34 576.459C1419.52 576.459 1422.3 577.124 1424.69 578.454C1427.1 579.763 1428.98 581.696 1430.31 584.252C1431.66 586.809 1432.33 589.949 1432.33 593.672V624.2H1426.87V594.009C1426.87 590.143 1425.78 587.085 1423.62 584.835C1421.47 582.585 1418.58 581.46 1414.96 581.46C1412.49 581.46 1410.29 581.992 1408.37 583.056C1406.44 584.12 1404.92 585.654 1403.8 587.658C1402.69 589.642 1402.14 592.005 1402.14 594.746ZM1491.33 625.182C1487.46 625.182 1484.08 624.159 1481.17 622.114C1478.27 620.068 1476 617.215 1474.36 613.554C1472.74 609.892 1471.94 605.627 1471.94 600.759C1471.94 595.912 1472.74 591.667 1474.36 588.026C1476 584.365 1478.28 581.522 1481.2 579.497C1484.13 577.451 1487.53 576.429 1491.42 576.429C1494.28 576.429 1496.67 576.94 1498.57 577.963C1500.47 578.965 1501.99 580.213 1503.14 581.706C1504.29 583.199 1505.18 584.651 1505.81 586.063H1506.3V561.364H1511.79V624.2H1506.45V615.456H1505.81C1505.18 616.888 1504.28 618.36 1503.11 619.874C1501.94 621.367 1500.4 622.625 1498.48 623.648C1496.57 624.671 1494.19 625.182 1491.33 625.182ZM1491.97 620.181C1495.02 620.181 1497.62 619.352 1499.76 617.696C1501.91 616.018 1503.55 613.717 1504.67 610.792C1505.82 607.847 1506.39 604.472 1506.39 600.667C1506.39 596.904 1505.83 593.58 1504.7 590.696C1503.58 587.791 1501.94 585.521 1499.8 583.884C1497.65 582.227 1495.04 581.399 1491.97 581.399C1488.82 581.399 1486.16 582.258 1483.99 583.976C1481.85 585.674 1480.21 587.975 1479.09 590.88C1477.98 593.784 1477.43 597.047 1477.43 600.667C1477.43 604.329 1477.99 607.632 1479.12 610.577C1480.24 613.523 1481.88 615.865 1484.03 617.604C1486.19 619.322 1488.84 620.181 1491.97 620.181ZM1610.75 641.873C1609.66 641.873 1608.65 641.771 1607.71 641.566C1606.77 641.362 1606.02 641.137 1605.47 640.891L1606.94 636.074C1608.81 636.647 1610.46 636.851 1611.91 636.688C1613.37 636.545 1614.66 635.89 1615.78 634.724C1616.91 633.579 1617.91 631.82 1618.79 629.447L1620.51 624.66L1603.17 577.073H1609.09L1623.08 616.99H1623.51L1637.5 577.073H1643.42L1623.48 631.656C1622.64 633.926 1621.61 635.818 1620.38 637.332C1619.16 638.866 1617.73 640.001 1616.12 640.738C1614.52 641.495 1612.73 641.873 1610.75 641.873ZM1698.39 625.182C1694.32 625.182 1690.72 624.149 1687.59 622.083C1684.48 620.017 1682.04 617.164 1680.28 613.523C1678.53 609.862 1677.65 605.638 1677.65 600.851C1677.65 596.024 1678.53 591.78 1680.28 588.118C1682.04 584.437 1684.48 581.573 1687.59 579.527C1690.72 577.462 1694.32 576.429 1698.39 576.429C1702.46 576.429 1706.05 577.462 1709.16 579.527C1712.27 581.593 1714.7 584.457 1716.46 588.118C1718.24 591.78 1719.13 596.024 1719.13 600.851C1719.13 605.638 1718.25 609.862 1716.49 613.523C1714.73 617.164 1712.29 620.017 1709.16 622.083C1706.05 624.149 1702.46 625.182 1698.39 625.182ZM1698.39 620.181C1701.66 620.181 1704.43 619.301 1706.7 617.542C1708.97 615.783 1710.69 613.441 1711.86 610.516C1713.04 607.591 1713.64 604.37 1713.64 600.851C1713.64 597.333 1713.04 594.101 1711.86 591.156C1710.69 588.21 1708.97 585.848 1706.7 584.068C1704.43 582.289 1701.66 581.399 1698.39 581.399C1695.13 581.399 1692.36 582.289 1690.07 584.068C1687.8 585.848 1686.07 588.21 1684.89 591.156C1683.72 594.101 1683.14 597.333 1683.14 600.851C1683.14 604.37 1683.72 607.591 1684.89 610.516C1686.07 613.441 1687.8 615.783 1690.07 617.542C1692.34 619.301 1695.11 620.181 1698.39 620.181ZM1788.71 606.19V577.073H1794.17V624.2H1788.71V616.376H1788.28C1787.18 618.79 1785.43 620.805 1783.03 622.421C1780.64 624.016 1777.72 624.814 1774.26 624.814C1771.25 624.814 1768.58 624.159 1766.25 622.85C1763.92 621.521 1762.09 619.577 1760.76 617.021C1759.43 614.464 1758.76 611.324 1758.76 607.601V577.073H1764.23V607.264C1764.23 610.946 1765.31 613.912 1767.48 616.162C1769.65 618.391 1772.43 619.506 1775.82 619.506C1777.95 619.506 1780 618.995 1781.96 617.972C1783.92 616.949 1785.54 615.456 1786.81 613.492C1788.08 611.508 1788.71 609.074 1788.71 606.19ZM1836.28 624.2V577.073H1841.59V584.314H1841.99C1842.93 581.941 1844.56 580.029 1846.89 578.576C1849.25 577.104 1851.91 576.367 1854.87 576.367C1855.32 576.367 1855.82 576.377 1856.37 576.398C1856.93 576.418 1857.39 576.439 1857.76 576.459V582.013C1857.51 581.972 1857.08 581.91 1856.47 581.829C1855.85 581.747 1855.19 581.706 1854.47 581.706C1852.02 581.706 1849.83 582.227 1847.91 583.271C1846 584.293 1844.5 585.715 1843.4 587.535C1842.29 589.356 1841.74 591.432 1841.74 593.764V624.2H1836.28ZM1952.13 561.364V624.2H1946.67V561.364H1952.13ZM2013.29 625.182C2008.89 625.182 2005.08 624.159 2001.87 622.114C1998.66 620.048 1996.17 617.195 1994.42 613.554C1992.68 609.892 1991.81 605.679 1991.81 600.913C1991.81 596.167 1992.68 591.954 1994.42 588.272C1996.17 584.57 1998.6 581.675 2001.69 579.589C2004.8 577.482 2008.39 576.429 2012.46 576.429C2015.01 576.429 2017.48 576.899 2019.85 577.84C2022.22 578.76 2024.35 580.182 2026.23 582.105C2028.14 584.007 2029.64 586.41 2030.74 589.315C2031.85 592.199 2032.4 595.615 2032.4 599.563V602.263H1995.58V597.446H2026.82C2026.82 594.418 2026.2 591.698 2024.97 589.284C2023.77 586.85 2022.08 584.927 2019.91 583.516C2017.76 582.105 2015.28 581.399 2012.46 581.399C2009.47 581.399 2006.84 582.197 2004.57 583.792C2002.3 585.388 2000.52 587.495 1999.23 590.113C1997.96 592.731 1997.32 595.595 1997.3 598.704V601.588C1997.3 605.331 1997.94 608.604 1999.23 611.406C2000.54 614.188 2002.39 616.346 2004.79 617.88C2007.18 619.414 2010.01 620.181 2013.29 620.181C2015.51 620.181 2017.47 619.833 2019.15 619.138C2020.84 618.442 2022.26 617.512 2023.41 616.346C2024.58 615.159 2025.46 613.86 2026.05 612.449L2031.23 614.137C2030.52 616.121 2029.34 617.951 2027.71 619.629C2026.09 621.306 2024.06 622.656 2021.63 623.679C2019.22 624.681 2016.44 625.182 2013.29 625.182ZM2085.25 625.274C2082.4 625.274 2079.8 624.722 2077.45 623.617C2075.1 622.492 2073.23 620.876 2071.84 618.77C2070.45 616.642 2069.75 614.065 2069.75 611.038C2069.75 608.706 2070.19 606.742 2071.07 605.147C2071.95 603.551 2073.2 602.242 2074.81 601.22C2076.43 600.197 2078.34 599.389 2080.55 598.796C2082.76 598.202 2085.19 597.742 2087.85 597.415C2090.49 597.088 2092.72 596.801 2094.54 596.556C2096.38 596.31 2097.78 595.922 2098.75 595.39C2099.71 594.858 2100.19 593.999 2100.19 592.813V591.708C2100.19 588.497 2099.23 585.971 2097.3 584.13C2095.4 582.268 2092.66 581.338 2089.08 581.338C2085.69 581.338 2082.91 582.084 2080.77 583.577C2078.64 585.071 2077.15 586.83 2076.29 588.855L2071.1 586.983C2072.16 584.406 2073.64 582.35 2075.52 580.816C2077.4 579.262 2079.51 578.147 2081.84 577.472C2084.17 576.776 2086.53 576.429 2088.93 576.429C2090.73 576.429 2092.6 576.664 2094.54 577.134C2096.51 577.605 2098.33 578.423 2100 579.589C2101.68 580.734 2103.04 582.34 2104.08 584.406C2105.13 586.451 2105.65 589.049 2105.65 592.199V624.2H2100.19V616.745H2099.85C2099.2 618.135 2098.22 619.485 2096.94 620.795C2095.65 622.104 2094.03 623.177 2092.09 624.016C2090.14 624.855 2087.86 625.274 2085.25 625.274ZM2085.98 620.273C2088.89 620.273 2091.4 619.629 2093.53 618.34C2095.66 617.051 2097.29 615.343 2098.44 613.216C2099.6 611.068 2100.19 608.706 2100.19 606.129V599.317C2099.78 599.706 2099.09 600.054 2098.13 600.36C2097.19 600.667 2096.1 600.943 2094.85 601.189C2093.62 601.414 2092.39 601.608 2091.17 601.772C2089.94 601.935 2088.84 602.079 2087.85 602.201C2085.19 602.529 2082.92 603.04 2081.04 603.735C2079.16 604.431 2077.72 605.392 2076.72 606.62C2075.71 607.826 2075.21 609.381 2075.21 611.283C2075.21 614.147 2076.24 616.366 2078.28 617.941C2080.33 619.496 2082.89 620.273 2085.98 620.273ZM2147.82 641.873V577.073H2153.13V586.063H2153.78C2154.43 584.651 2155.33 583.209 2156.48 581.737C2157.62 580.243 2159.14 578.985 2161.02 577.963C2162.92 576.94 2165.31 576.429 2168.2 576.429C2172.08 576.429 2175.48 577.451 2178.38 579.497C2181.31 581.522 2183.58 584.365 2185.2 588.026C2186.83 591.667 2187.65 595.912 2187.65 600.759C2187.65 605.627 2186.83 609.892 2185.2 613.554C2183.58 617.215 2181.31 620.068 2178.38 622.114C2175.48 624.159 2172.1 625.182 2168.26 625.182C2165.42 625.182 2163.03 624.671 2161.11 623.648C2159.21 622.625 2157.66 621.367 2156.48 619.874C2155.31 618.36 2154.41 616.888 2153.78 615.456H2153.29V641.873H2147.82ZM2153.22 600.667C2153.22 604.472 2153.79 607.847 2154.91 610.792C2156.06 613.717 2157.69 616.018 2159.82 617.696C2161.97 619.352 2164.57 620.181 2167.61 620.181C2170.74 620.181 2173.38 619.322 2175.53 617.604C2177.7 615.865 2179.35 613.523 2180.47 610.577C2181.62 607.632 2182.19 604.329 2182.19 600.667C2182.19 597.047 2181.63 593.784 2180.5 590.88C2179.4 587.975 2177.76 585.674 2175.59 583.976C2173.42 582.258 2170.76 581.399 2167.61 581.399C2164.55 581.399 2161.94 582.227 2159.79 583.884C2157.64 585.521 2156.01 587.791 2154.88 590.696C2153.78 593.58 2153.22 596.904 2153.22 600.667Z" fill="#01204E"/>
</g>
<defs>
<clipPath id="clip0_279_4093">
<rect width="2711" height="810" fill="white"/>
</clipPath>
</defs>
</svg>
