<svg width="1935" height="584" viewBox="0 0 1935 584" fill="none" xmlns="http://www.w3.org/2000/svg">
<path d="M279.188 446.942L243.75 379.067H68.8125L33.375 446.942H7.6875L142.5 189.317H170.062L304.875 446.942H279.188ZM156.375 212.005L80.25 357.505H232.312L156.375 212.005ZM603 446.942L379.125 220.067V446.942H355.688V189.317H381.562L605.438 416.942V189.317H628.5V446.942H603Z" fill="white"/>
<path d="M782.5 446.942H712.938V189.317H887.312C906.062 189.317 921.938 191.255 934.938 195.13C948.062 199.005 958.688 204.505 966.812 211.63C975.062 218.755 981 227.38 984.625 237.505C988.375 247.505 990.25 258.692 990.25 271.067C990.25 281.942 988.688 291.442 985.562 299.567C982.562 307.692 978.438 314.692 973.188 320.567C968.062 326.317 962.062 331.192 955.188 335.192C948.312 339.192 941.062 342.505 933.438 345.13L1017.81 446.942H936.438L858.438 352.067H782.5V446.942ZM919.938 270.692C919.938 265.692 919.25 261.442 917.875 257.942C916.625 254.442 914.375 251.63 911.125 249.505C907.875 247.255 903.5 245.63 898 244.63C892.625 243.63 885.875 243.13 877.75 243.13H782.5V298.255H877.75C885.875 298.255 892.625 297.755 898 296.755C903.5 295.755 907.875 294.192 911.125 292.067C914.375 289.817 916.625 286.942 917.875 283.442C919.25 279.942 919.938 275.692 919.938 270.692ZM1399.19 318.317C1399.19 340.442 1395.12 360.005 1387 377.005C1378.88 393.88 1367.25 408.005 1352.12 419.38C1337 430.755 1318.62 439.38 1297 445.255C1275.5 451.005 1251.31 453.88 1224.44 453.88C1197.56 453.88 1173.25 451.005 1151.5 445.255C1129.88 439.38 1111.44 430.755 1096.19 419.38C1080.94 408.005 1069.19 393.88 1060.94 377.005C1052.69 360.005 1048.56 340.442 1048.56 318.317C1048.56 296.192 1052.69 276.692 1060.94 259.817C1069.19 242.817 1080.94 228.63 1096.19 217.255C1111.44 205.88 1129.88 197.317 1151.5 191.567C1173.25 185.692 1197.56 182.755 1224.44 182.755C1251.31 182.755 1275.5 185.692 1297 191.567C1318.62 197.317 1337 205.88 1352.12 217.255C1367.25 228.63 1378.88 242.817 1387 259.817C1395.12 276.692 1399.19 296.192 1399.19 318.317ZM1328.88 318.317C1328.88 308.692 1327.31 299.13 1324.19 289.63C1321.19 280.005 1315.75 271.38 1307.88 263.755C1300.12 256.13 1289.5 249.942 1276 245.192C1262.5 240.442 1245.31 238.067 1224.44 238.067C1210.44 238.067 1198.12 239.192 1187.5 241.442C1176.88 243.567 1167.69 246.567 1159.94 250.442C1152.19 254.317 1145.69 258.88 1140.44 264.13C1135.19 269.255 1131 274.817 1127.88 280.817C1124.75 286.692 1122.5 292.88 1121.12 299.38C1119.88 305.755 1119.25 312.067 1119.25 318.317C1119.25 324.692 1119.88 331.13 1121.12 337.63C1122.5 344.13 1124.75 350.38 1127.88 356.38C1131 362.255 1135.19 367.755 1140.44 372.88C1145.69 378.005 1152.19 382.505 1159.94 386.38C1167.69 390.13 1176.88 393.13 1187.5 395.38C1198.12 397.505 1210.44 398.567 1224.44 398.567C1245.31 398.567 1262.5 396.192 1276 391.442C1289.5 386.692 1300.12 380.505 1307.88 372.88C1315.75 365.255 1321.19 356.692 1324.19 347.192C1327.31 337.567 1328.88 327.942 1328.88 318.317ZM1699.94 261.88C1695.06 259.505 1688.62 256.817 1680.62 253.817C1672.62 250.817 1663.56 248.005 1653.44 245.38C1643.31 242.63 1632.31 240.38 1620.44 238.63C1608.56 236.755 1596.38 235.817 1583.88 235.817C1573.88 235.817 1565.31 236.13 1558.19 236.755C1551.19 237.38 1545.25 238.192 1540.38 239.192C1535.62 240.192 1531.81 241.38 1528.94 242.755C1526.19 244.005 1524.06 245.317 1522.56 246.692C1521.06 248.067 1520.06 249.442 1519.56 250.817C1519.19 252.192 1519 253.442 1519 254.567C1519 258.317 1520.88 261.63 1524.62 264.505C1528.38 267.255 1533.5 269.755 1540 272.005C1546.5 274.13 1554.06 276.192 1562.69 278.192C1571.31 280.067 1580.44 282.067 1590.06 284.192C1599.81 286.192 1609.81 288.442 1620.06 290.942C1630.44 293.317 1640.44 296.13 1650.06 299.38C1659.81 302.63 1669 306.442 1677.62 310.817C1686.25 315.067 1693.81 320.067 1700.31 325.817C1706.81 331.567 1711.94 338.192 1715.69 345.692C1719.44 353.192 1721.31 361.755 1721.31 371.38C1721.31 383.755 1719.12 394.38 1714.75 403.255C1710.38 412.13 1704.5 419.63 1697.12 425.755C1689.88 431.88 1681.44 436.817 1671.81 440.567C1662.19 444.192 1652.06 447.005 1641.44 449.005C1630.94 451.005 1620.25 452.317 1609.38 452.942C1598.62 453.567 1588.38 453.88 1578.62 453.88C1553.12 453.88 1529.5 451.755 1507.75 447.505C1486.12 443.38 1467 438.192 1450.38 431.942V370.442C1467.5 379.942 1487 387.38 1508.88 392.755C1530.88 398.13 1554.38 400.817 1579.38 400.817C1594.12 400.817 1606.12 400.067 1615.38 398.567C1624.75 396.942 1632.06 394.942 1637.31 392.567C1642.56 390.067 1646.12 387.38 1648 384.505C1649.88 381.63 1650.81 378.88 1650.81 376.255C1650.81 372.13 1648.94 368.567 1645.19 365.567C1641.44 362.442 1636.31 359.755 1629.81 357.505C1623.31 355.13 1615.75 353.005 1607.12 351.13C1598.5 349.13 1589.31 347.192 1579.56 345.317C1569.94 343.317 1560 341.192 1549.75 338.942C1539.5 336.692 1529.5 334.067 1519.75 331.067C1510.12 327.942 1501 324.38 1492.38 320.38C1483.75 316.255 1476.19 311.442 1469.69 305.942C1463.19 300.317 1458.06 293.88 1454.31 286.63C1450.56 279.255 1448.69 270.755 1448.69 261.13C1448.69 249.755 1450.69 239.942 1454.69 231.692C1458.69 223.442 1464.06 216.442 1470.81 210.692C1477.69 204.817 1485.56 200.067 1494.44 196.442C1503.44 192.817 1512.88 190.005 1522.75 188.005C1532.62 186.005 1542.62 184.63 1552.75 183.88C1562.88 183.13 1572.5 182.755 1581.62 182.755C1591.62 182.755 1601.88 183.255 1612.38 184.255C1623 185.255 1633.44 186.692 1643.69 188.567C1653.94 190.317 1663.81 192.38 1673.31 194.755C1682.94 197.13 1691.81 199.63 1699.94 202.255V261.88Z" fill="white"/>
<circle cx="1841.08" cy="48.0832" r="15.0517" transform="rotate(31.31 1841.08 48.0832)" fill="white"/>
<path d="M1777.2 70.0222C1794.23 55.6676 1822.53 39.3389 1830.48 37.8193C1837.54 48.4687 1844.16 56.6908 1846.77 61.9427C1829.16 65.271 1806.01 80.4475 1789.39 94.579C1782.57 100.381 1772.86 111.864 1767.74 122.538C1763.12 132.184 1760.12 138.801 1757.67 157.868C1756.59 166.239 1756.57 175.259 1761.02 185.819C1761.7 187.444 1763.17 189.843 1765.79 190.061C1768.98 190.325 1769.79 189.816 1771.92 189.187C1771.92 189.187 1769.58 191.529 1766.49 192.49C1765.05 192.939 1762.52 193.25 1760.22 192.355C1756.96 191.085 1753.91 186.526 1752.26 184.002C1748.62 178.444 1743.57 166.259 1742.82 156.774C1741.41 138.952 1742.73 130.894 1746.85 116.686C1750.4 104.468 1758.54 85.7539 1777.2 70.0222Z" fill="white"/>
<circle cx="1712.84" cy="151.62" r="8.79636" transform="rotate(-88.69 1712.84 151.62)" fill="white"/>
<path d="M1762.1 179.174C1741.06 175.384 1716.48 162.472 1711.11 159.549C1716.66 154.276 1716.59 148.833 1719.77 146.589C1736.98 156.184 1754.66 164.032 1775.29 167.704C1783.76 169.211 1798.8 170.618 1810.59 170.339C1821.24 170.088 1829.97 169.441 1847.62 166.2C1855.37 164.777 1858.3 164.204 1865.59 161.282C1867.69 160.442 1873.81 156.745 1872.87 155.262C1871.78 153.537 1869.65 152.388 1867.31 151.52C1867.31 151.52 1869.94 152.295 1871.5 152.831C1873.58 153.546 1875.02 154.403 1875.78 155.714C1876.71 157.304 1874.32 161.225 1872.99 162.466C1870.07 165.199 1862.56 171.528 1853.35 174.86C1838.96 180.062 1832 180.687 1817.68 182.16C1805.36 183.426 1785.15 183.328 1762.1 179.174Z" fill="white"/>
<circle cx="1853.9" cy="183.595" r="5.11788" transform="rotate(151.31 1853.9 183.595)" fill="white"/>
<path d="M1841.25 136.207C1849.94 155.522 1857.44 178.968 1858.82 184.401C1853.84 180.936 1851.68 184.711 1849.16 182.522C1844.83 165.028 1838.67 146.488 1830.13 127.552C1826.63 119.778 1820.24 106.103 1814.34 95.9008C1809.01 86.6817 1804.82 78.7168 1794.79 64.1801C1790.39 57.7981 1785.31 50.8846 1780.57 46.7238C1779.11 45.4418 1776.09 44.1203 1775.58 45.2249C1775.01 46.4396 1775.72 50.1924 1776.5 52.4587C1776.5 52.4587 1775.54 49.9658 1775.01 48.4676C1774.29 46.4682 1774.18 42.8272 1775.73 42.1322C1777.45 41.3658 1779.69 42.1657 1780.89 42.9696C1784.04 45.0819 1789.4 49.6344 1794.24 55.7764C1803.34 67.3179 1807.44 72.7267 1815.09 84.8243C1821.66 95.2282 1831.73 115.039 1841.25 136.207Z" fill="white"/>
<path d="M32.7727 515.015V519.771H10.283V515.015H32.7727ZM17.3091 503.724H22.8011V549.839C22.8011 551.803 23.1386 553.347 23.8136 554.472C24.4886 555.577 25.3682 556.364 26.4523 556.835C27.5364 557.285 28.692 557.51 29.9193 557.51C30.6352 557.51 31.2489 557.469 31.7602 557.387C32.2716 557.285 32.7216 557.182 33.1102 557.08L34.2761 562.02C33.7443 562.224 33.0898 562.408 32.3125 562.572C31.5352 562.756 30.5739 562.848 29.4284 562.848C27.4239 562.848 25.4909 562.408 23.6295 561.529C21.7886 560.649 20.275 559.34 19.0886 557.602C17.9023 555.863 17.3091 553.705 17.3091 551.128V503.724ZM79.2977 532.688V562.143H73.8363V499.306H79.2977V522.41H79.7886C80.8932 519.976 82.6011 518.032 84.9125 516.58C87.2443 515.128 90.1898 514.402 93.7488 514.402C96.9398 514.402 99.742 515.056 102.156 516.365C104.569 517.674 106.451 519.607 107.801 522.164C109.151 524.721 109.826 527.871 109.826 531.614V562.143H104.334V531.952C104.334 528.065 103.25 525.007 101.082 522.778C98.9341 520.528 96.0295 519.403 92.3682 519.403C89.8523 519.403 87.6125 519.935 85.6488 520.998C83.6852 522.062 82.1307 523.596 80.9852 525.601C79.8602 527.585 79.2977 529.947 79.2977 532.688ZM170.91 563.124C166.512 563.124 162.707 562.102 159.496 560.056C156.285 557.99 153.799 555.137 152.04 551.496C150.302 547.835 149.432 543.621 149.432 538.855C149.432 534.11 150.302 529.896 152.04 526.214C153.799 522.512 156.223 519.618 159.312 517.531C162.421 515.424 166.011 514.371 170.081 514.371C172.638 514.371 175.103 514.841 177.476 515.782C179.848 516.703 181.976 518.124 183.857 520.047C185.76 521.949 187.263 524.353 188.368 527.257C189.472 530.141 190.024 533.557 190.024 537.505V540.205H153.206V535.388H184.44C184.44 532.361 183.827 529.64 182.599 527.227C181.393 524.793 179.705 522.87 177.537 521.458C175.389 520.047 172.904 519.341 170.081 519.341C167.095 519.341 164.466 520.139 162.196 521.735C159.926 523.33 158.146 525.437 156.857 528.055C155.589 530.673 154.945 533.537 154.924 536.646V539.53C154.924 543.273 155.569 546.546 156.857 549.348C158.166 552.13 160.018 554.288 162.411 555.822C164.804 557.356 167.637 558.123 170.91 558.123C173.139 558.123 175.093 557.776 176.77 557.08C178.468 556.385 179.889 555.454 181.035 554.288C182.201 553.102 183.08 551.803 183.673 550.391L188.858 552.079C188.143 554.063 186.966 555.894 185.33 557.571C183.714 559.248 181.689 560.598 179.255 561.621C176.841 562.623 174.06 563.124 170.91 563.124ZM300.064 563.124C295.851 563.124 292.179 562.071 289.05 559.964C285.941 557.857 283.527 554.973 281.809 551.312C280.091 547.651 279.231 543.478 279.231 538.794C279.231 534.069 280.101 529.865 281.839 526.183C283.599 522.502 286.033 519.618 289.142 517.531C292.251 515.424 295.861 514.371 299.972 514.371C303.122 514.371 305.976 514.985 308.533 516.212C311.089 517.419 313.196 519.127 314.853 521.336C316.53 523.524 317.584 526.081 318.013 529.006H312.491C311.918 526.347 310.537 524.077 308.349 522.195C306.18 520.293 303.419 519.341 300.064 519.341C297.058 519.341 294.399 520.16 292.087 521.796C289.776 523.412 287.966 525.672 286.656 528.577C285.368 531.461 284.724 534.805 284.724 538.61C284.724 542.435 285.358 545.82 286.626 548.765C287.894 551.69 289.674 553.981 291.964 555.638C294.276 557.295 296.976 558.123 300.064 558.123C302.151 558.123 304.053 557.735 305.771 556.957C307.51 556.16 308.962 555.035 310.128 553.582C311.314 552.13 312.112 550.402 312.521 548.397H318.044C317.635 551.24 316.622 553.777 315.006 556.006C313.411 558.215 311.335 559.954 308.778 561.222C306.242 562.49 303.337 563.124 300.064 563.124ZM375.714 563.124C371.644 563.124 368.044 562.091 364.914 560.026C361.805 557.96 359.371 555.106 357.612 551.465C355.853 547.804 354.973 543.58 354.973 538.794C354.973 533.966 355.853 529.722 357.612 526.061C359.371 522.379 361.805 519.515 364.914 517.47C368.044 515.404 371.644 514.371 375.714 514.371C379.785 514.371 383.374 515.404 386.483 517.47C389.593 519.536 392.027 522.399 393.786 526.061C395.565 529.722 396.455 533.966 396.455 538.794C396.455 543.58 395.575 547.804 393.816 551.465C392.057 555.106 389.613 557.96 386.483 560.026C383.374 562.091 379.785 563.124 375.714 563.124ZM375.714 558.123C378.987 558.123 381.758 557.244 384.029 555.485C386.299 553.726 388.018 551.383 389.183 548.458C390.37 545.533 390.963 542.312 390.963 538.794C390.963 535.276 390.37 532.044 389.183 529.098C388.018 526.153 386.299 523.79 384.029 522.011C381.758 520.231 378.987 519.341 375.714 519.341C372.462 519.341 369.69 520.231 367.399 522.011C365.129 523.79 363.4 526.153 362.214 529.098C361.048 532.044 360.465 535.276 360.465 538.794C360.465 542.312 361.048 545.533 362.214 548.458C363.4 551.383 365.129 553.726 367.399 555.485C369.67 557.244 372.441 558.123 375.714 558.123ZM453.059 563.124C449.193 563.124 445.808 562.102 442.903 560.056C439.999 558.011 437.728 555.157 436.092 551.496C434.476 547.835 433.668 543.57 433.668 538.702C433.668 533.854 434.476 529.61 436.092 525.969C437.728 522.307 440.009 519.464 442.934 517.439C445.859 515.394 449.265 514.371 453.151 514.371C456.015 514.371 458.398 514.882 460.3 515.905C462.202 516.907 463.726 518.155 464.871 519.648C466.017 521.141 466.907 522.594 467.541 524.005H468.032V499.306H473.524V562.143H468.185V553.398H467.541C466.907 554.83 466.007 556.303 464.841 557.816C463.675 559.31 462.131 560.568 460.208 561.59C458.306 562.613 455.923 563.124 453.059 563.124ZM453.703 558.123C456.751 558.123 459.349 557.295 461.496 555.638C463.644 553.961 465.281 551.66 466.406 548.735C467.551 545.789 468.124 542.414 468.124 538.61C468.124 534.846 467.561 531.522 466.436 528.638C465.311 525.733 463.675 523.463 461.527 521.827C459.379 520.17 456.771 519.341 453.703 519.341C450.553 519.341 447.894 520.201 445.726 521.919C443.578 523.616 441.942 525.918 440.817 528.822C439.712 531.727 439.16 534.989 439.16 538.61C439.16 542.271 439.723 545.574 440.848 548.52C441.973 551.465 443.609 553.807 445.757 555.546C447.925 557.264 450.574 558.123 453.703 558.123ZM535.781 563.124C531.383 563.124 527.579 562.102 524.367 560.056C521.156 557.99 518.671 555.137 516.912 551.496C515.173 547.835 514.304 543.621 514.304 538.855C514.304 534.11 515.173 529.896 516.912 526.214C518.671 522.512 521.094 519.618 524.183 517.531C527.292 515.424 530.882 514.371 534.952 514.371C537.509 514.371 539.974 514.841 542.347 515.782C544.719 516.703 546.847 518.124 548.729 520.047C550.631 521.949 552.134 524.353 553.239 527.257C554.343 530.141 554.896 533.557 554.896 537.505V540.205H518.077V535.388H549.312C549.312 532.361 548.698 529.64 547.471 527.227C546.264 524.793 544.576 522.87 542.408 521.458C540.26 520.047 537.775 519.341 534.952 519.341C531.966 519.341 529.338 520.139 527.067 521.735C524.797 523.33 523.017 525.437 521.729 528.055C520.46 530.673 519.816 533.537 519.796 536.646V539.53C519.796 543.273 520.44 546.546 521.729 549.348C523.038 552.13 524.889 554.288 527.282 555.822C529.675 557.356 532.508 558.123 535.781 558.123C538.01 558.123 539.964 557.776 541.641 557.08C543.339 556.385 544.76 555.454 545.906 554.288C547.072 553.102 547.951 551.803 548.544 550.391L553.73 552.079C553.014 554.063 551.838 555.894 550.201 557.571C548.585 559.248 546.56 560.598 544.126 561.621C541.713 562.623 538.931 563.124 535.781 563.124ZM647.662 562.143V499.306H653.154V524.005H653.645C654.258 522.594 655.138 521.141 656.283 519.648C657.449 518.155 658.973 516.907 660.855 515.905C662.757 514.882 665.15 514.371 668.035 514.371C671.9 514.371 675.296 515.394 678.221 517.439C681.146 519.464 683.427 522.307 685.063 525.969C686.699 529.61 687.517 533.854 687.517 538.702C687.517 543.57 686.699 547.835 685.063 551.496C683.447 555.157 681.177 558.011 678.252 560.056C675.347 562.102 671.972 563.124 668.127 563.124C665.263 563.124 662.87 562.613 660.947 561.59C659.045 560.568 657.511 559.31 656.345 557.816C655.179 556.303 654.279 554.83 653.645 553.398H652.97V562.143H647.662ZM653.062 538.61C653.062 542.414 653.624 545.789 654.749 548.735C655.895 551.66 657.531 553.961 659.658 555.638C661.806 557.295 664.404 558.123 667.452 558.123C670.581 558.123 673.23 557.264 675.398 555.546C677.566 553.807 679.213 551.465 680.338 548.52C681.463 545.574 682.025 542.271 682.025 538.61C682.025 534.989 681.463 531.727 680.338 528.822C679.233 525.918 677.597 523.616 675.429 521.919C673.261 520.201 670.602 519.341 667.452 519.341C664.383 519.341 661.775 520.17 659.628 521.827C657.5 523.463 655.874 525.733 654.749 528.638C653.624 531.522 653.062 534.846 653.062 538.61ZM746.215 563.124C741.818 563.124 738.013 562.102 734.802 560.056C731.59 557.99 729.105 555.137 727.346 551.496C725.608 547.835 724.738 543.621 724.738 538.855C724.738 534.11 725.608 529.896 727.346 526.214C729.105 522.512 731.529 519.618 734.618 517.531C737.727 515.424 741.317 514.371 745.387 514.371C747.944 514.371 750.409 514.841 752.781 515.782C755.154 516.703 757.281 518.124 759.163 520.047C761.065 521.949 762.569 524.353 763.673 527.257C764.778 530.141 765.33 533.557 765.33 537.505V540.205H728.512V535.388H759.746C759.746 532.361 759.133 529.64 757.905 527.227C756.698 524.793 755.011 522.87 752.843 521.458C750.695 520.047 748.21 519.341 745.387 519.341C742.401 519.341 739.772 520.139 737.502 521.735C735.231 523.33 733.452 525.437 732.163 528.055C730.895 530.673 730.251 533.537 730.23 536.646V539.53C730.23 543.273 730.875 546.546 732.163 549.348C733.472 552.13 735.323 554.288 737.717 555.822C740.11 557.356 742.943 558.123 746.215 558.123C748.445 558.123 750.398 557.776 752.076 557.08C753.773 556.385 755.195 555.454 756.34 554.288C757.506 553.102 758.386 551.803 758.979 550.391L764.164 552.079C763.448 554.063 762.272 555.894 760.636 557.571C759.02 559.248 756.995 560.598 754.561 561.621C752.147 562.623 749.365 563.124 746.215 563.124ZM810.475 532.688V562.143H805.013V499.306H810.475V522.41H810.965C812.07 519.976 813.778 518.032 816.089 516.58C818.421 515.128 821.367 514.402 824.926 514.402C828.117 514.402 830.919 515.056 833.333 516.365C835.746 517.674 837.628 519.607 838.978 522.164C840.328 524.721 841.003 527.871 841.003 531.614V562.143H835.511V531.952C835.511 528.065 834.427 525.007 832.259 522.778C830.111 520.528 827.206 519.403 823.545 519.403C821.029 519.403 818.789 519.935 816.826 520.998C814.862 522.062 813.308 523.596 812.162 525.601C811.037 527.585 810.475 529.947 810.475 532.688ZM883.094 562.143V515.015H888.586V562.143H883.094ZM885.886 506.915C884.761 506.915 883.8 506.537 883.002 505.78C882.205 505.003 881.806 504.072 881.806 502.988C881.806 501.904 882.205 500.983 883.002 500.227C883.8 499.449 884.761 499.061 885.886 499.061C887.011 499.061 887.973 499.449 888.771 500.227C889.568 500.983 889.967 501.904 889.967 502.988C889.967 504.072 889.568 505.003 888.771 505.78C887.973 506.537 887.011 506.915 885.886 506.915ZM936.139 532.688V562.143H930.678V515.015H935.986V522.41H936.477C937.581 519.996 939.3 518.063 941.631 516.611C943.984 515.138 946.888 514.402 950.345 514.402C953.515 514.402 956.297 515.066 958.69 516.396C961.104 517.705 962.976 519.638 964.305 522.195C965.655 524.752 966.33 527.891 966.33 531.614V562.143H960.869V531.952C960.869 528.086 959.785 525.028 957.617 522.778C955.469 520.528 952.585 519.403 948.964 519.403C946.489 519.403 944.29 519.935 942.368 520.998C940.445 522.062 938.921 523.596 937.796 525.601C936.692 527.585 936.139 529.947 936.139 532.688ZM1025.33 563.124C1021.46 563.124 1018.08 562.102 1015.17 560.056C1012.27 558.011 1010 555.157 1008.36 551.496C1006.74 547.835 1005.94 543.57 1005.94 538.702C1005.94 533.854 1006.74 529.61 1008.36 525.969C1010 522.307 1012.28 519.464 1015.2 517.439C1018.13 515.394 1021.53 514.371 1025.42 514.371C1028.28 514.371 1030.67 514.882 1032.57 515.905C1034.47 516.907 1035.99 518.155 1037.14 519.648C1038.29 521.141 1039.18 522.594 1039.81 524.005H1040.3V499.306H1045.79V562.143H1040.45V553.398H1039.81C1039.18 554.83 1038.28 556.303 1037.11 557.816C1035.94 559.31 1034.4 560.568 1032.48 561.59C1030.57 562.613 1028.19 563.124 1025.33 563.124ZM1025.97 558.123C1029.02 558.123 1031.62 557.295 1033.76 555.638C1035.91 553.961 1037.55 551.66 1038.67 548.735C1039.82 545.789 1040.39 542.414 1040.39 538.61C1040.39 534.846 1039.83 531.522 1038.7 528.638C1037.58 525.733 1035.94 523.463 1033.8 521.827C1031.65 520.17 1029.04 519.341 1025.97 519.341C1022.82 519.341 1020.16 520.201 1017.99 521.919C1015.85 523.616 1014.21 525.918 1013.09 528.822C1011.98 531.727 1011.43 534.989 1011.43 538.61C1011.43 542.271 1011.99 545.574 1013.12 548.52C1014.24 551.465 1015.88 553.807 1018.03 555.546C1020.19 557.264 1022.84 558.123 1025.97 558.123ZM1144.75 579.815C1143.66 579.815 1142.65 579.713 1141.71 579.508C1140.77 579.304 1140.02 579.079 1139.47 578.833L1140.94 574.016C1142.81 574.589 1144.46 574.794 1145.91 574.63C1147.37 574.487 1148.66 573.832 1149.78 572.666C1150.91 571.521 1151.91 569.762 1152.79 567.389L1154.51 562.603L1137.17 515.015H1143.09L1157.08 554.932H1157.51L1171.5 515.015H1177.42L1157.48 569.598C1156.64 571.869 1155.61 573.761 1154.38 575.274C1153.16 576.808 1151.73 577.944 1150.12 578.68C1148.52 579.437 1146.73 579.815 1144.75 579.815ZM1232.39 563.124C1228.32 563.124 1224.72 562.091 1221.59 560.026C1218.48 557.96 1216.04 555.106 1214.28 551.465C1212.53 547.804 1211.65 543.58 1211.65 538.794C1211.65 533.966 1212.53 529.722 1214.28 526.061C1216.04 522.379 1218.48 519.515 1221.59 517.47C1224.72 515.404 1228.32 514.371 1232.39 514.371C1236.46 514.371 1240.05 515.404 1243.16 517.47C1246.27 519.536 1248.7 522.399 1250.46 526.061C1252.24 529.722 1253.13 533.966 1253.13 538.794C1253.13 543.58 1252.25 547.804 1250.49 551.465C1248.73 555.106 1246.29 557.96 1243.16 560.026C1240.05 562.091 1236.46 563.124 1232.39 563.124ZM1232.39 558.123C1235.66 558.123 1238.43 557.244 1240.7 555.485C1242.97 553.726 1244.69 551.383 1245.86 548.458C1247.04 545.533 1247.64 542.312 1247.64 538.794C1247.64 535.276 1247.04 532.044 1245.86 529.098C1244.69 526.153 1242.97 523.79 1240.7 522.011C1238.43 520.231 1235.66 519.341 1232.39 519.341C1229.13 519.341 1226.36 520.231 1224.07 522.011C1221.8 523.79 1220.07 526.153 1218.89 529.098C1217.72 532.044 1217.14 535.276 1217.14 538.794C1217.14 542.312 1217.72 545.533 1218.89 548.458C1220.07 551.383 1221.8 553.726 1224.07 555.485C1226.34 557.244 1229.11 558.123 1232.39 558.123ZM1322.71 544.132V515.015H1328.17V562.143H1322.71V554.319H1322.28C1321.18 556.732 1319.43 558.747 1317.03 560.363C1314.64 561.958 1311.72 562.756 1308.26 562.756C1305.25 562.756 1302.58 562.102 1300.25 560.793C1297.92 559.463 1296.09 557.52 1294.76 554.963C1293.43 552.406 1292.76 549.266 1292.76 545.544V515.015H1298.23V545.206C1298.23 548.888 1299.31 551.854 1301.48 554.104C1303.65 556.333 1306.43 557.448 1309.82 557.448C1311.95 557.448 1314 556.937 1315.96 555.914C1317.92 554.891 1319.54 553.398 1320.81 551.435C1322.08 549.451 1322.71 547.016 1322.71 544.132ZM1370.28 562.143V515.015H1375.59V522.256H1375.99C1376.93 519.883 1378.56 517.971 1380.89 516.519C1383.25 515.046 1385.91 514.31 1388.87 514.31C1389.32 514.31 1389.82 514.32 1390.37 514.34C1390.93 514.361 1391.39 514.381 1391.76 514.402V519.955C1391.51 519.914 1391.08 519.853 1390.47 519.771C1389.85 519.689 1389.19 519.648 1388.47 519.648C1386.02 519.648 1383.83 520.17 1381.91 521.213C1380 522.236 1378.5 523.657 1377.4 525.478C1376.29 527.298 1375.74 529.374 1375.74 531.706V562.143H1370.28ZM1486.13 499.306V562.143H1480.67V499.306H1486.13ZM1547.29 563.124C1542.89 563.124 1539.08 562.102 1535.87 560.056C1532.66 557.99 1530.17 555.137 1528.42 551.496C1526.68 547.835 1525.81 543.621 1525.81 538.855C1525.81 534.11 1526.68 529.896 1528.42 526.214C1530.17 522.512 1532.6 519.618 1535.69 517.531C1538.8 515.424 1542.39 514.371 1546.46 514.371C1549.01 514.371 1551.48 514.841 1553.85 515.782C1556.22 516.703 1558.35 518.124 1560.23 520.047C1562.14 521.949 1563.64 524.353 1564.74 527.257C1565.85 530.141 1566.4 533.557 1566.4 537.505V540.205H1529.58V535.388H1560.82C1560.82 532.361 1560.2 529.64 1558.97 527.227C1557.77 524.793 1556.08 522.87 1553.91 521.458C1551.76 520.047 1549.28 519.341 1546.46 519.341C1543.47 519.341 1540.84 520.139 1538.57 521.735C1536.3 523.33 1534.52 525.437 1533.23 528.055C1531.96 530.673 1531.32 533.537 1531.3 536.646V539.53C1531.3 543.273 1531.94 546.546 1533.23 549.348C1534.54 552.13 1536.39 554.288 1538.79 555.822C1541.18 557.356 1544.01 558.123 1547.29 558.123C1549.51 558.123 1551.47 557.776 1553.15 557.08C1554.84 556.385 1556.26 555.454 1557.41 554.288C1558.58 553.102 1559.46 551.803 1560.05 550.391L1565.23 552.079C1564.52 554.063 1563.34 555.894 1561.71 557.571C1560.09 559.248 1558.06 560.598 1555.63 561.621C1553.22 562.623 1550.44 563.124 1547.29 563.124ZM1619.25 563.216C1616.4 563.216 1613.8 562.664 1611.45 561.56C1609.1 560.435 1607.23 558.819 1605.84 556.712C1604.45 554.585 1603.75 552.007 1603.75 548.98C1603.75 546.648 1604.19 544.685 1605.07 543.089C1605.95 541.494 1607.2 540.185 1608.81 539.162C1610.43 538.139 1612.34 537.331 1614.55 536.738C1616.76 536.145 1619.19 535.685 1621.85 535.357C1624.49 535.03 1626.72 534.744 1628.54 534.498C1630.38 534.253 1631.78 533.864 1632.75 533.332C1633.71 532.801 1634.19 531.941 1634.19 530.755V529.651C1634.19 526.439 1633.23 523.913 1631.3 522.072C1629.4 520.211 1626.66 519.28 1623.08 519.28C1619.69 519.28 1616.91 520.027 1614.77 521.52C1612.64 523.013 1611.15 524.772 1610.29 526.797L1605.1 524.926C1606.16 522.348 1607.64 520.293 1609.52 518.758C1611.4 517.204 1613.51 516.089 1615.84 515.414C1618.17 514.719 1620.53 514.371 1622.93 514.371C1624.73 514.371 1626.6 514.606 1628.54 515.077C1630.51 515.547 1632.33 516.365 1634 517.531C1635.68 518.677 1637.04 520.282 1638.08 522.348C1639.13 524.394 1639.65 526.991 1639.65 530.141V562.143H1634.19V554.687H1633.85C1633.2 556.078 1632.22 557.428 1630.94 558.737C1629.65 560.046 1628.03 561.12 1626.09 561.958C1624.14 562.797 1621.86 563.216 1619.25 563.216ZM1619.98 558.215C1622.89 558.215 1625.4 557.571 1627.53 556.282C1629.66 554.994 1631.29 553.286 1632.44 551.158C1633.6 549.011 1634.19 546.648 1634.19 544.071V537.26C1633.78 537.648 1633.09 537.996 1632.13 538.303C1631.19 538.61 1630.1 538.886 1628.85 539.131C1627.62 539.356 1626.39 539.551 1625.17 539.714C1623.94 539.878 1622.84 540.021 1621.85 540.144C1619.19 540.471 1616.92 540.982 1615.04 541.678C1613.16 542.373 1611.72 543.335 1610.72 544.562C1609.71 545.769 1609.21 547.323 1609.21 549.226C1609.21 552.089 1610.24 554.308 1612.28 555.883C1614.33 557.438 1616.89 558.215 1619.98 558.215ZM1681.82 579.815V515.015H1687.13V524.005H1687.78C1688.43 522.594 1689.33 521.152 1690.48 519.679C1691.62 518.186 1693.14 516.928 1695.02 515.905C1696.92 514.882 1699.31 514.371 1702.2 514.371C1706.08 514.371 1709.48 515.394 1712.38 517.439C1715.31 519.464 1717.58 522.307 1719.2 525.969C1720.83 529.61 1721.65 533.854 1721.65 538.702C1721.65 543.57 1720.83 547.835 1719.2 551.496C1717.58 555.157 1715.31 558.011 1712.38 560.056C1709.48 562.102 1706.1 563.124 1702.26 563.124C1699.42 563.124 1697.03 562.613 1695.11 561.59C1693.21 560.568 1691.66 559.31 1690.48 557.816C1689.31 556.303 1688.41 554.83 1687.78 553.398H1687.29V579.815H1681.82ZM1687.22 538.61C1687.22 542.414 1687.79 545.789 1688.91 548.735C1690.06 551.66 1691.69 553.961 1693.82 555.638C1695.97 557.295 1698.57 558.123 1701.61 558.123C1704.74 558.123 1707.38 557.264 1709.53 555.546C1711.7 553.807 1713.35 551.465 1714.47 548.52C1715.62 545.574 1716.19 542.271 1716.19 538.61C1716.19 534.989 1715.63 531.727 1714.5 528.822C1713.4 525.918 1711.76 523.616 1709.59 521.919C1707.42 520.201 1704.76 519.341 1701.61 519.341C1698.55 519.341 1695.94 520.17 1693.79 521.827C1691.64 523.463 1690.01 525.733 1688.88 528.638C1687.78 531.522 1687.22 534.846 1687.22 538.61Z" fill="white"/>
</svg>
